<svg xmlns="http://www.w3.org/2000/svg" version="1.1" xmlns:xlink="http://www.w3.org/1999/xlink" xmlns:svgjs="http://svgjs.dev/svgjs" width="2000" height="439" viewBox="0 0 2000 439"><g transform="matrix(1,0,0,1,-1.2121212121212466,-0.8317209521452185)"><svg viewBox="0 0 396 87" data-background-color="#ffffff" preserveAspectRatio="xMidYMid meet" height="439" width="2000" xmlns="http://www.w3.org/2000/svg" xmlns:xlink="http://www.w3.org/1999/xlink"><g id="tight-bounds" transform="matrix(1,0,0,1,0.2400000000000091,0.16482852582376495)"><svg viewBox="0 0 395.52 86.67034294835247" height="86.67034294835247" width="395.52"><g><svg viewBox="0 0 532.01503112499 116.58051476861168" height="86.67034294835247" width="395.52"><g transform="matrix(1,0,0,1,0,16.112068249496986)"><svg viewBox="0 0 395.52 84.35637826961771" height="84.35637826961771" width="395.52"><g id="textblocktransform"><svg viewBox="0 0 395.52 84.35637826961771" height="84.35637826961771" width="395.52" id="textblock"><g><svg viewBox="0 0 395.52 84.35637826961771" height="84.35637826961771" width="395.52"><g transform="matrix(1,0,0,1,0,0)"><svg width="395.52" viewBox="2.35 -41.6 223.63 47.7" height="84.35637826961771" data-palette-color="#ffffff"><path d="M25.7 3.7L25.7 3.7Q25.6 3.75 25.5 3.75 25.4 3.75 25.1 3.75L25.1 3.75Q24.4 3.75 23.48 3.53 22.55 3.3 21.68 2.98 20.8 2.65 20.18 2.25 19.55 1.85 19.4 1.55L19.4 1.55Q19.35 0.85 19.35 0.1 19.35-0.65 19.35-1.35L19.35-1.35Q19.35-6.95 20.18-13.05 21-19.15 22.9-26.25L22.9-26.25Q23.1-26.95 23.33-28.03 23.55-29.1 23.8-30.35L23.8-30.35Q22.6-29.4 20.95-27.33 19.3-25.25 17.48-22.43 15.65-19.6 13.83-16.23 12-12.85 10.5-9.38 9-5.9 7.93-2.5 6.85 0.9 6.6 3.8L6.6 3.8Q4.2 3.1 3.28 2.4 2.35 1.7 2.35 0.7L2.35 0.7Q2.35-0.2 2.9-1.85 3.45-3.5 4.45-5.75 5.45-8 6.9-10.78 8.35-13.55 10.1-16.75L10.1-16.75Q12.1-20.4 14.03-23.6 15.95-26.8 17.8-29.4 19.65-32 21.43-33.9 23.2-35.8 24.95-36.8L24.95-36.8Q25.65-36.8 26.83-36.45 28-36.1 29.13-35.6 30.25-35.1 31.13-34.58 32-34.05 32.1-33.7L32.1-33.7Q31.4-32.3 30.45-29.5 29.5-26.7 28.53-23.15 27.55-19.6 26.68-15.63 25.8-11.65 25.3-8L25.3-8Q26.45-10.75 27.98-13.73 29.5-16.7 31.2-19.63 32.9-22.55 34.68-25.3 36.45-28.05 38.15-30.33 39.85-32.6 41.33-34.3 42.8-36 43.95-36.8L43.95-36.8Q44.65-36.8 45.83-36.45 47-36.1 48.13-35.6 49.25-35.1 50.13-34.58 51-34.05 51.1-33.7L51.1-33.7Q49.5-30.85 48.3-26.75 47.1-22.65 46.28-18.15 45.45-13.65 45.03-9.22 44.6-4.8 44.6-1.3L44.6-1.3Q44.6-0.15 44.6 1.1 44.6 2.35 44.7 3.7L44.7 3.7Q44 3.7 43.03 3.53 42.05 3.35 41.13 3.05 40.2 2.75 39.45 2.38 38.7 2 38.4 1.55L38.4 1.55Q38.35 0.85 38.35 0.1 38.35-0.65 38.35-1.35L38.35-1.35Q38.35-6.95 39.18-13.05 40-19.15 41.9-26.25L41.9-26.25Q42.1-26.95 42.35-28.15 42.6-29.35 42.85-30.65L42.85-30.65Q41.45-29.95 39.68-27.98 37.9-26 36.08-23.18 34.25-20.35 32.48-16.9 30.7-13.45 29.28-9.88 27.85-6.3 26.88-2.78 25.9 0.75 25.7 3.7ZM67.95-20.2L67.95-20.2Q68.45-20.2 69.12-20.03 69.8-19.85 70.35-19.58 70.9-19.3 71.27-19 71.65-18.7 71.65-18.45L71.65-18.45Q70.65-16.35 69.8-14.23 68.95-12.1 68.35-10.15 67.75-8.2 67.42-6.5 67.1-4.8 67.1-3.55L67.1-3.55Q67.1-2.15 67.4-1.23 67.7-0.3 68.4 0.1L68.4 0.1Q67.8 0.5 66.85 0.75 65.9 1 65.15 1L65.15 1Q62.45 1 62.45-2.7L62.45-2.7Q62.45-5.55 64.35-10.5L64.35-10.5Q63.35-8.2 62.05-6.18 60.75-4.15 59.4-2.6 58.05-1.05 56.67-0.08 55.3 0.9 54.15 1.1L54.15 1.1Q52.3 1 51.15-0.68 50-2.35 50-4.95L50-4.95Q50-7.75 51.2-10.85 52.4-13.95 54.27-16.6 56.15-19.25 58.35-21.03 60.55-22.8 62.6-22.9L62.6-22.9Q63.1-22.75 63.72-22.3 64.35-21.85 64.92-21.25 65.5-20.65 65.9-20.03 66.3-19.4 66.35-18.95L66.35-18.95Q64.35-18.65 62.22-17 60.1-15.35 58.37-13.03 56.65-10.7 55.55-8.05 54.45-5.4 54.45-3.1L54.45-3.1Q54.45-2.15 55.15-1.9L55.15-1.9Q56.6-2.2 58.5-4.38 60.4-6.55 63.1-11.1L63.1-11.1Q63.6-12 64.22-13.1 64.85-14.2 65.5-15.4 66.15-16.6 66.77-17.82 67.4-19.05 67.95-20.2ZM73-1L73-1Q73.25-2.45 73.87-4.83 74.5-7.2 75.34-9.88 76.19-12.55 77.14-15.25 78.09-17.95 79-20.1L79-20.1Q79.64-21.65 80.14-22.53 80.64-23.4 81.25-24L81.25-24Q81.94-23.9 82.69-23.65 83.44-23.4 84.14-23.05 84.84-22.7 85.39-22.33 85.94-21.95 86.25-21.6L86.25-21.6Q84.89-20 83.87-17.95 82.84-15.9 81.8-12.7L81.8-12.7Q84.5-15.1 86.57-17.3 88.64-19.5 90.44-22.2L90.44-22.2Q90.75-22.45 91.5-22.45L91.5-22.45Q92.19-22.45 92.84-22.23 93.5-22 93.75-21.6L93.75-21.6Q92.84-19.2 92.84-16.85L92.84-16.85Q92.84-14.65 93.5-13.55L93.5-13.55Q93.44-13.25 92.82-12.4 92.19-11.55 91.44-10.8L91.44-10.8Q90.09-11.5 89.05-12.73 88-13.95 87.5-15.4L87.5-15.4Q85.14-13.75 83.5-12.18 81.84-10.6 80.67-8.68 79.5-6.75 78.67-4.25 77.84-1.75 77.09 1.7L77.09 1.7Q76.64 1.65 76.02 1.38 75.39 1.1 74.77 0.7 74.14 0.3 73.64-0.15 73.14-0.6 73-1ZM94.39-3.35L94.39-3.35Q94.39-3.8 94.47-4.48 94.54-5.15 94.74-6.28 94.94-7.4 95.27-9 95.59-10.6 96.09-12.85L96.09-12.85Q96.19-13.35 96.54-14.45 96.89-15.55 97.47-16.78 98.04-18 98.87-19.15 99.69-20.3 100.84-20.85L100.84-20.85Q101.69-20.65 103.09-19.83 104.49-19 105.49-17.55L105.49-17.55Q104.34-16.25 103.57-14.95 102.79-13.65 102.17-12.25 101.54-10.85 101.02-9.35 100.49-7.85 99.84-6.2L99.84-6.2Q99.29-4.8 98.84-3.33 98.39-1.85 98.34-0.75L98.34-0.75Q98.34 0.15 98.32 0.53 98.29 0.9 98.04 0.9L98.04 0.9Q97.84 0.9 97.24 0.65 96.64 0.4 96.02-0.13 95.39-0.65 94.89-1.45 94.39-2.25 94.39-3.35ZM103.94-25.05L103.94-25.05Q103.94-25.35 104.09-25.95L104.09-25.95Q103.84-26.2 103.67-26.7 103.49-27.2 103.49-27.6L103.49-27.6Q103.49-28.05 103.62-28.83 103.74-29.6 103.94-30.5 104.14-31.4 104.44-32.38 104.74-33.35 105.04-34.15L105.04-34.15Q105.64-34.15 106.52-33.83 107.39-33.5 108.29-32.98 109.19-32.45 109.94-31.83 110.69-31.2 111.09-30.65L111.09-30.65Q110.54-30.1 109.64-29.13 108.74-28.15 107.89-27.08 107.04-26 106.34-25.05 105.64-24.1 105.44-23.7L105.44-23.7Q104.84-23.8 104.39-24.23 103.94-24.65 103.94-25.05ZM123.39-20.2L123.39-20.2Q123.89-20.2 124.57-20.03 125.24-19.85 125.79-19.58 126.34-19.3 126.72-19 127.09-18.7 127.09-18.45L127.09-18.45Q126.09-16.35 125.24-14.23 124.39-12.1 123.79-10.15 123.19-8.2 122.87-6.5 122.54-4.8 122.54-3.55L122.54-3.55Q122.54-2.15 122.84-1.23 123.14-0.3 123.84 0.1L123.84 0.1Q123.24 0.5 122.29 0.75 121.34 1 120.59 1L120.59 1Q117.89 1 117.89-2.7L117.89-2.7Q117.89-5.55 119.79-10.5L119.79-10.5Q118.79-8.2 117.49-6.18 116.19-4.15 114.84-2.6 113.49-1.05 112.12-0.08 110.74 0.9 109.59 1.1L109.59 1.1Q107.74 1 106.59-0.68 105.44-2.35 105.44-4.95L105.44-4.95Q105.44-7.75 106.64-10.85 107.84-13.95 109.72-16.6 111.59-19.25 113.79-21.03 115.99-22.8 118.04-22.9L118.04-22.9Q118.54-22.75 119.17-22.3 119.79-21.85 120.37-21.25 120.94-20.65 121.34-20.03 121.74-19.4 121.79-18.95L121.79-18.95Q119.79-18.65 117.67-17 115.54-15.35 113.82-13.03 112.09-10.7 110.99-8.05 109.89-5.4 109.89-3.1L109.89-3.1Q109.89-2.15 110.59-1.9L110.59-1.9Q112.04-2.2 113.94-4.38 115.84-6.55 118.54-11.1L118.54-11.1Q119.04-12 119.67-13.1 120.29-14.2 120.94-15.4 121.59-16.6 122.22-17.82 122.84-19.05 123.39-20.2ZM157.63 3.2L157.63 3.2Q156.49 3.8 155.19 3.8L155.19 3.8Q153.59 3.6 152.11 3 150.63 2.4 149.94 1.55L149.94 1.55Q149.53-0.9 149.28-2.95 149.03-5 148.88-6.83 148.74-8.65 148.69-10.33 148.63-12 148.63-13.7L148.63-13.7Q148.63-15.95 148.69-18.45 148.74-20.95 148.81-23.78 148.88-26.6 148.94-29.83 148.99-33.05 148.99-36.85L148.99-36.85Q149.63-36.85 150.94-36.48 152.24-36.1 153.51-35.6 154.78-35.1 155.78-34.58 156.78-34.05 156.88-33.7L156.88-33.7Q156.38-32.3 156.01-30.05 155.63-27.8 155.41-25.05 155.19-22.3 155.09-19.25 154.99-16.2 154.99-13.2L154.99-13.2Q154.99-10.95 155.03-9.18 155.09-7.4 155.16-5.98 155.24-4.55 155.38-3.33 155.53-2.1 155.74-0.9L155.74-0.9Q157.13-5.15 158.81-9.4 160.49-13.65 162.26-17.57 164.03-21.5 165.78-24.9 167.53-28.3 169.11-30.83 170.69-33.35 171.94-34.83 173.19-36.3 173.99-36.4L173.99-36.4Q174.53-36.3 175.16-35.98 175.78-35.65 176.34-35.2 176.88-34.75 177.34-34.2 177.78-33.65 178.03-33.1L178.03-33.1Q176.19-32.45 174.06-30.05 171.94-27.65 169.78-24.28 167.63-20.9 165.61-16.93 163.59-12.95 161.96-9.15 160.34-5.35 159.19-2.05 158.03 1.25 157.63 3.2ZM171.18-3.35L171.18-3.35Q171.18-3.8 171.26-4.48 171.33-5.15 171.53-6.28 171.73-7.4 172.06-9 172.38-10.6 172.88-12.85L172.88-12.85Q172.98-13.35 173.33-14.45 173.68-15.55 174.26-16.78 174.83-18 175.66-19.15 176.48-20.3 177.63-20.85L177.63-20.85Q178.48-20.65 179.88-19.83 181.28-19 182.28-17.55L182.28-17.55Q181.13-16.25 180.36-14.95 179.58-13.65 178.96-12.25 178.33-10.85 177.81-9.35 177.28-7.85 176.63-6.2L176.63-6.2Q176.08-4.8 175.63-3.33 175.18-1.85 175.13-0.75L175.13-0.75Q175.13 0.15 175.11 0.53 175.08 0.9 174.83 0.9L174.83 0.9Q174.63 0.9 174.03 0.65 173.43 0.4 172.81-0.13 172.18-0.65 171.68-1.45 171.18-2.25 171.18-3.35ZM180.73-25.05L180.73-25.05Q180.73-25.35 180.88-25.95L180.88-25.95Q180.63-26.2 180.46-26.7 180.28-27.2 180.28-27.6L180.28-27.6Q180.28-28.05 180.41-28.83 180.53-29.6 180.73-30.5 180.93-31.4 181.23-32.38 181.53-33.35 181.83-34.15L181.83-34.15Q182.43-34.15 183.31-33.83 184.18-33.5 185.08-32.98 185.98-32.45 186.73-31.83 187.48-31.2 187.88-30.65L187.88-30.65Q187.33-30.1 186.43-29.13 185.53-28.15 184.68-27.08 183.83-26 183.13-25.05 182.43-24.1 182.23-23.7L182.23-23.7Q181.63-23.8 181.18-24.23 180.73-24.65 180.73-25.05ZM181.73-1L181.73-1Q181.98-2.45 182.61-4.83 183.23-7.2 184.08-9.88 184.93-12.55 185.88-15.25 186.83-17.95 187.73-20.1L187.73-20.1Q188.38-21.65 188.88-22.53 189.38-23.4 189.98-24L189.98-24Q190.68-23.9 191.43-23.65 192.18-23.4 192.88-23.05 193.58-22.7 194.13-22.33 194.68-21.95 194.98-21.6L194.98-21.6Q193.63-20 192.61-17.95 191.58-15.9 190.53-12.7L190.53-12.7Q193.23-15.1 195.31-17.3 197.38-19.5 199.18-22.2L199.18-22.2Q199.48-22.45 200.23-22.45L200.23-22.45Q200.93-22.45 201.58-22.23 202.23-22 202.48-21.6L202.48-21.6Q201.58-19.2 201.58-16.85L201.58-16.85Q201.58-14.65 202.23-13.55L202.23-13.55Q202.18-13.25 201.56-12.4 200.93-11.55 200.18-10.8L200.18-10.8Q198.83-11.5 197.78-12.73 196.73-13.95 196.23-15.4L196.23-15.4Q193.88-13.75 192.23-12.18 190.58-10.6 189.41-8.68 188.23-6.75 187.41-4.25 186.58-1.75 185.83 1.7L185.83 1.7Q185.38 1.65 184.76 1.38 184.13 1.1 183.51 0.7 182.88 0.3 182.38-0.15 181.88-0.6 181.73-1ZM203.18-4.7L203.18-4.7Q203.18-6.5 204.1-9.7 205.03-12.9 206.53-16.7 208.03-20.5 209.93-24.55 211.83-28.6 213.75-32.1 215.68-35.6 217.45-38.15 219.23-40.7 220.48-41.6L220.48-41.6Q221.18-41.55 222-41 222.83-40.45 223.53-39.68 224.23-38.9 224.7-38.05 225.18-37.2 225.18-36.5L225.18-36.5Q222.93-34.7 220.6-31.88 218.28-29.05 216.18-25.68 214.08-22.3 212.3-18.53 210.53-14.75 209.33-11.1L209.33-11.1Q210.93-13.85 212.68-16.1 214.43-18.35 216.18-19.95 217.93-21.55 219.6-22.43 221.28-23.3 222.78-23.35L222.78-23.35Q224.98-21.75 224.98-19.1L224.98-19.1Q224.98-17.5 224.33-15.88 223.68-14.25 222.6-12.88 221.53-11.5 220.15-10.53 218.78-9.55 217.28-9.25L217.28-9.25Q217.78-7.5 218.55-5.7 219.33-3.9 220.4-2.2 221.48-0.5 222.85 0.95 224.23 2.4 225.98 3.4L225.98 3.4Q225.73 3.9 225.23 4.4 224.73 4.9 224.03 5.28 223.33 5.65 222.5 5.88 221.68 6.1 220.88 6.1L220.88 6.1Q219.53 6.1 218.35 4.75 217.18 3.4 216.23 0.85L216.23 0.85Q215.48-1.2 214.78-4.05 214.08-6.9 213.53-10L213.53-10Q214.23-10.45 215.28-11.33 216.33-12.2 217.48-13.35L217.48-13.35Q221.88-17.6 221.88-20.7L221.88-20.7Q221.88-21.1 221.33-21.1L221.33-21.1Q220.33-21.05 218.98-20.15 217.63-19.25 216.1-17.65 214.58-16.05 213-13.9 211.43-11.75 209.98-9.25L209.98-9.25Q209.38-8.25 208.88-6.95 208.38-5.65 208-4.28 207.63-2.9 207.43-1.55 207.23-0.2 207.23 0.95L207.23 0.95Q207.23 1.65 207.38 2.1L207.38 2.1Q205.83 1.95 205.48 1.3L205.48 1.3Q205.08 0.7 204.8 0.33 204.53-0.05 204.23-0.3L204.23-0.3Q203.78-0.65 203.48-1.8 203.18-2.95 203.18-4.7Z" opacity="1" transform="matrix(1,0,0,1,0,0)" fill="#ffffff" class="wordmark-text-0" data-fill-palette-color="primary" id="text-0"></path></svg></g></svg></g></svg></g></svg></g><g transform="matrix(1,0,0,1,415.43451635637825,0)"><svg viewBox="0 0 116.58051476861168 116.58051476861168" height="116.58051476861168" width="116.58051476861168"><g data-palette-color="#00cccc"><rect width="31.865340703420525" height="116.58051476861168" fill="#00cccc" stroke="transparent" data-fill-palette-color="accent" x="0" fill-opacity="1"></rect><rect width="31.865340703420525" height="116.58051476861168" fill="#00cccc" stroke="transparent" data-fill-palette-color="accent" x="38.860171589537224" fill-opacity="0.75"></rect><rect width="31.865340703420525" height="116.58051476861168" fill="#00cccc" stroke="transparent" data-fill-palette-color="accent" x="77.72034317907445" fill-opacity="0.5"></rect></g></svg></g></svg></g><defs></defs></svg><rect width="395.52" height="86.67034294835247" fill="none" stroke="none" visibility="hidden"></rect></g></svg></g></svg>