<?xml version="1.0" encoding="UTF-8" standalone="no"?>
<!-- Created with Inkscape (http://www.inkscape.org/) -->
<!-- ClipArt by Arvin61r58 (http://openclipart.org/user-detail/Arvin61r58) -->
<svg
   xmlns:dc="http://purl.org/dc/elements/1.1/"
   xmlns:cc="http://creativecommons.org/ns#"
   xmlns:rdf="http://www.w3.org/1999/02/22-rdf-syntax-ns#"
   xmlns:svg="http://www.w3.org/2000/svg"
   xmlns="http://www.w3.org/2000/svg"
   width="678.22198"
   height="679.19598"
   viewBox="0 0 678.22199 679.196"
   id="svg6125"
   version="1.1">
  <title
     id="title6807">Round Border 2</title>
  <defs
     id="defs6127" />
  <metadata
     id="metadata6130">
    <rdf:RDF>
      <cc:Work
         rdf:about="">
        <dc:format>image/svg+xml</dc:format>
        <dc:type
           rdf:resource="http://purl.org/dc/dcmitype/StillImage" />
        <dc:title>Round Border 2</dc:title>
        <cc:license
           rdf:resource="http://creativecommons.org/publicdomain/zero/1.0/" />
        <dc:creator>
          <cc:Agent>
            <dc:title>Arvin61r58</dc:title>
          </cc:Agent>
        </dc:creator>
        <dc:publisher>
          <cc:Agent>
            <dc:title>Openclipart.org</dc:title>
          </cc:Agent>
        </dc:publisher>
        <dc:identifier>https://openclipart.org/</dc:identifier>
        <dc:source>https://openclipart.org/user-detail/Arvin61r58</dc:source>
        <dc:description>rounder border/frame</dc:description>
        <dc:subject>
          <rdf:Bag>
            <rdf:li>frame</rdf:li>
            <rdf:li>border</rdf:li>
            <rdf:li>round</rdf:li>
            <rdf:li>black and white</rdf:li>
            <rdf:li>monochrome</rdf:li>
          </rdf:Bag>
        </dc:subject>
      </cc:Work>
      <cc:License
         rdf:about="http://creativecommons.org/publicdomain/zero/1.0/">
        <cc:permits
           rdf:resource="http://creativecommons.org/ns#Reproduction" />
        <cc:permits
           rdf:resource="http://creativecommons.org/ns#Distribution" />
        <cc:permits
           rdf:resource="http://creativecommons.org/ns#DerivativeWorks" />
      </cc:License>
    </rdf:RDF>
  </metadata>
  <g
     transform="translate(-32.936243,-186.58312)"
     id="layer1">
    <g
       transform="translate(29.474959,135.28107)"
       id="g6802">
      <path
         id="path6781"
         d="m 627.36318,390.72049 c 0,0 -9.89351,-0.12271 -9.89351,-0.12271 0.48014,2.26602 1.57988,4.40104 3.19134,6.96699 1.94845,3.10253 3.53579,6.42249 3.44384,7.90547 -0.092,1.48298 -1.93448,4.59286 -4.25117,7.43101 -2.48581,3.04533 -4.32477,6.16047 -4.58457,8.48542 -0.25981,2.32494 0.84608,5.77009 2.5985,9.28895 1.63319,3.27946 2.74352,6.72135 2.5061,8.18809 -0.23743,1.46674 -2.35779,3.90934 -5.00497,6.44204 -2.84043,2.7176 -5.01442,5.5957 -5.55692,7.87135 -0.062,0.26002 0.0317,0.727 -10e-4,1.03204 0,0 9.72147,2.31751 9.72147,2.31751 0.48095,-2.91865 1.61969,-5.38247 3.69863,-7.41301 1.58443,-1.54754 3.85468,-3.95734 5.14052,-5.6595 2.50706,-3.31876 2.23735,-5.34375 -1.8167,-13.69924 -2.24581,-4.6287 -1.64331,-10.01951 1.56867,-14.03842 1.38274,-1.73012 3.376,-4.39559 4.44311,-6.24276 2.08058,-3.60148 1.64184,-5.57212 -3.41062,-13.36457 -1.0353,-1.59676 -1.54187,-3.47122 -1.79264,-5.38866 0,0 0,0 0,0 m -7.69417,65.83877 c 0,0 -9.62458,-2.29441 -9.62458,-2.29441 -0.0297,2.31614 0.49076,4.62756 1.49972,7.48465 1.21995,3.45454 1.95607,7.02428 1.54129,8.45104 -0.41478,1.42676 -2.97971,4.03683 -5.86153,6.29897 -3.09219,2.42728 -5.39579,4.48579 -6.21141,6.67842 -0.81562,2.19263 -0.49775,5.8399 0.35033,9.67841 0.79038,3.57735 1.11315,7.22219 0.52785,8.58788 -0.58529,1.3657 -3.42257,3.65655 -6.55815,5.55135 -3.36449,2.03312 -6.20037,4.32968 -7.22566,6.43246 -0.11715,0.24027 -0.12745,0.71644 -0.22591,1.00701 0,0 8.98298,4.37996 8.98298,4.37996 1.10531,-2.74375 2.84009,-4.86083 5.31164,-6.3894 1.88365,-1.16497 4.7115,-2.98484 6.33763,-4.36559 3.17052,-2.69209 3.41096,-4.90466 1.50106,-13.99322 -1.05801,-5.03479 0.64853,-9.79169 4.6624,-13.00997 1.72795,-1.38545 4.3557,-3.7734 5.8396,-5.30597 2.89322,-2.98811 2.76433,-5.0645 -0.23767,-13.853 -0.61514,-1.80086 -0.78644,-3.41292 -0.60959,-5.33859 0,0 0,0 0,0 m -22.67867,62.31737 c 0,0 -8.89344,-4.3363 -8.89344,-4.3363 -0.53363,2.25402 -0.29652,4.11441 -0.008,7.13062 0.34924,3.64694 0.27338,7.32964 -0.4738,8.61393 -0.74719,1.2843 -3.79498,3.23938 -7.138,4.73816 -3.58707,1.6082 -6.63424,3.56942 -7.90818,5.53155 -1.27394,1.96213 -1.83567,5.53605 -1.84516,9.46712 -0.009,3.66361 -0.56413,7.23464 -1.43339,8.43967 -0.86925,1.20502 -3.86856,2.42859 -7.36993,3.50681 -3.75697,1.15693 -6.99174,2.74893 -8.49663,4.54006 -0.17195,0.20466 -0.2975,0.6641 -0.46352,0.92209 0,0 7.65165,6.42884 7.65165,6.42884 1.73807,-2.39352 3.86287,-4.08026 6.63123,-4.96414 2.10986,-0.67363 5.22371,-1.80601 7.13581,-2.75186 3.72809,-1.84413 4.4057,-3.76701 4.52396,-13.05332 0.0655,-5.14433 3.03234,-9.6907 7.70491,-11.84375 2.01151,-0.92687 4.99312,-2.41597 6.77522,-3.58851 3.47464,-2.28614 3.96878,-4.24863 2.95323,-13.48 -0.20809,-1.89162 0.0616,-3.4601 0.65372,-5.30097 0,0 0,0 0,0 m -36.27041,55.07301 c 0,0 -7.57539,-6.36476 -7.57539,-6.36476 -1.06464,2.05717 -1.63509,4.34957 -2.01441,7.35574 -0.45864,3.6348 -1.40003,7.14956 -2.41088,8.23854 -1.01085,1.08897 -4.46958,2.26529 -8.06028,2.99258 -3.85284,0.78039 -7.30868,1.96038 -8.98328,3.59396 -1.67461,1.63357 -2.60395,4.56977 -3.57411,8.37925 -0.90417,3.5503 -2.2446,6.95544 -3.3822,7.91124 -1.13761,0.9558 -4.68977,1.73078 -8.34278,2.00953 -3.91968,0.2991 -7.47255,1.07973 -9.33564,2.49458 -0.21288,0.16166 -0.43673,0.58206 -0.65559,0.79705 0,0 6.04415,7.95902 6.04415,7.95902 2.22346,-1.95091 4.71433,-3.06875 7.60951,-3.31975 2.20651,-0.19129 5.54037,-0.5506 7.61406,-1.05113 4.04316,-0.97588 5.22757,-2.58598 7.38952,-11.6179 1.19767,-5.0034 5.1977,-8.66407 10.22925,-9.73737 2.16605,-0.46205 5.58623,-1.41583 7.60028,-2.11893 3.92687,-1.37083 4.74092,-3.2799 5.99854,-12.48142 0.25771,-1.88549 0.82808,-3.39807 1.84925,-5.04023 0,0 0,0 0,0 m -48.20536,45.47873 c 0,0 -5.98391,-7.8797 -5.98391,-7.8797 -1.4924,1.77148 -2.60141,3.82298 -3.63449,6.67143 -1.24911,3.44411 -2.61222,6.39342 -3.85843,7.20254 -1.2462,0.80911 -4.83769,1.19476 -8.49734,1.02417 -3.92681,-0.18305 -7.52191,0.20909 -9.54402,1.38551 -2.0221,1.17643 -4.12808,4.1298 -5.90966,7.63399 -1.66038,3.26577 -3.75997,6.21985 -5.07922,6.90343 -1.31925,0.68357 -4.99934,0.58474 -8.6249,0.058 -3.89022,-0.56524 -7.00869,-0.89825 -9.15895,0.0233 -0.2457,0.1053 -0.56469,0.45898 -0.82911,0.61456 0,0 3.93677,9.18585 3.93677,9.18585 2.62974,-1.35439 5.28477,-1.91718 8.15445,-1.4589 2.18708,0.34927 5.4728,0.7269 7.60597,0.74454 4.15913,0.0344 5.61686,-1.40849 9.911,-9.64317 2.37884,-4.56175 7.06019,-7.31392 12.20156,-7.12742 2.21334,0.0803 5.53575,0.0806 7.65518,-0.16188 4.1323,-0.47281 5.43708,-2.03006 8.6934,-10.72752 0.66727,-1.78221 1.60329,-3.07238 2.9617,-4.44867 0,0 0,0 0,0 m -57.12786,32.95227 c 0,0 -3.89754,-9.09429 -3.89754,-9.09429 -1.87698,1.35733 -3.42081,3.1611 -5.11246,5.67491 -2.0454,3.03949 -4.47004,5.76637 -5.86264,6.2844 -1.39261,0.51803 -5.01553,0.0226 -8.5501,-0.94124 -3.79259,-1.03422 -7.41804,-1.52491 -9.64785,-0.8172 -2.2298,0.70771 -4.39394,2.9179 -6.96933,5.88788 -2.40017,2.76791 -5.1303,5.20757 -6.57563,5.55213 -1.44533,0.34455 -4.97262,-0.5596 -8.36335,-1.9471 -3.63825,-1.48878 -7.16819,-2.38857 -9.46768,-1.95818 -0.26274,0.0492 -0.65119,0.32477 -0.94318,0.41895 0,0 1.83862,9.8233 1.83862,9.8233 2.86181,-0.74824 5.59234,-0.62558 8.29312,0.44718 2.05836,0.8176 5.20277,1.9952 7.28086,2.47719 4.05171,0.93976 5.83712,0.0342 11.82175,-7.0675 3.31531,-3.93411 8.54266,-5.41871 13.51988,-4.11648 2.14266,0.56061 5.62666,1.2455 7.74186,1.52247 4.12406,0.54001 5.70949,-0.81517 10.97367,-8.46618 1.07869,-1.56778 2.26872,-2.67388 3.92,-3.68024 0,0 0,0 0,0 m -63.52527,19.02179 c 0,0 -1.82029,-9.7254 -1.82029,-9.7254 -2.12782,0.91529 -4.04034,2.24575 -6.23986,4.32975 -2.65947,2.5198 -5.19872,4.53179 -6.67536,4.6968 -1.47664,0.165 -4.85745,-1.10509 -8.05248,-2.89783 -3.42827,-1.92362 -6.8121,-3.18925 -9.14703,-3.04447 -2.33493,0.14479 -5.53456,1.83709 -8.69902,4.16937 -2.94918,2.17359 -6.14455,3.87007 -7.63027,3.88849 -1.48571,0.0184 -4.72182,-1.72038 -7.72395,-3.82022 -3.2213,-2.25313 -5.83926,-3.93731 -8.17419,-4.08209 -0.26679,-0.0165 -0.71083,0.15573 -1.01698,0.17567 0,0 -0.6185,9.97473 -0.6185,9.97473 2.95789,-0.026 5.57749,0.65563 7.93448,2.35553 1.79634,1.29554 4.55751,3.10261 6.45524,4.07696 3.70006,1.89974 5.64485,1.2621 13.17727,-4.17041 4.17274,-3.00943 9.583,-3.36348 14.09545,-0.89241 1.94259,1.06379 4.9113,2.55885 6.91474,3.29164 3.90617,1.42874 5.77123,0.63525 12.57837,-5.68239 1.39486,-1.29455 2.81137,-2.02172 4.64238,-2.64372 0,0 0,0 0,0 m -65.80664,3.80516 c 0,0 0.61234,-9.87531 0.61234,-9.87531 -2.28701,0.36737 -4.47104,1.29563 -7.11349,2.77831 -3.19503,1.79274 -6.58443,3.14929 -8.06107,2.98428 -1.47664,-0.16501 -4.48529,-2.22401 -7.20588,-4.67769 -2.9192,-2.63279 -5.93217,-4.68844 -8.24152,-5.06226 -2.30936,-0.37383 -5.23948,0.65923 -8.87774,2.14802 -3.39072,1.38749 -6.93155,2.35167 -8.37688,2.00712 -1.44533,-0.34456 -4.19045,-2.72461 -6.59062,-5.49252 -2.57538,-2.96997 -5.32671,-5.34788 -7.57312,-6.00094 -0.25668,-0.0746 -0.72768,-0.004 -1.03076,-0.0515 0,0 -2.78985,9.59659 -2.78985,9.59659 2.89166,0.62302 5.27938,1.94648 7.20579,4.12227 1.46817,1.65824 3.74805,4.10945 5.38519,5.47712 3.19199,2.66659 5.20085,2.62769 13.74533,-1.01118 4.73339,-2.0158 10.06921,-1.01779 13.92504,2.38824 1.65991,1.46628 4.21668,3.65357 6.00895,4.81051 3.49444,2.25573 5.67897,1.85379 13.82463,-2.60689 1.66914,-0.91404 3.22616,-1.37863 5.15366,-1.53416 0,0 0,0 0,0 m -65.28785,-11.51087 c 0,0 2.76205,-9.50095 2.76205,-9.50095 -2.31192,-0.14286 -4.62713,0.19864 -7.53008,1.06688 -3.50999,1.04981 -7.09056,1.54583 -8.49539,1.06192 -1.40482,-0.48391 -3.44654,-3.01525 -5.49194,-6.05474 -2.19471,-3.26138 -4.65796,-5.90726 -6.80822,-6.8288 -2.15026,-0.92153 -5.7809,-0.84456 -9.65619,-0.18461 -3.61163,0.61506 -7.23841,0.69779 -8.57395,0.0466 -1.33553,-0.65119 -3.45423,-3.6579 -5.19384,-6.88216 -1.86661,-3.45965 -3.46435,-6.14823 -5.48645,-7.32465 -0.23105,-0.13443 -0.70519,-0.17955 -0.98778,-0.29901 0,0 -5.02564,8.63833 -5.02564,8.63833 2.65549,1.30315 4.6936,3.09203 6.0373,5.66876 1.02408,1.96381 2.6837,4.82013 3.94187,6.54286 2.45308,3.35885 4.48688,3.65599 13.65774,2.19141 5.08038,-0.81132 10.08896,1.29246 13.00516,5.53088 1.25541,1.82462 3.24011,4.4849 4.69849,6.04179 2.84344,3.03551 4.87954,3.13746 13.80415,0.5682 1.82875,-0.52647 3.428,-0.55347 5.34272,-0.28272 0,0 0,0 0,0 M 200.2088,637.55709 c 0,0 4.97556,-8.55223 4.97556,-8.55223 -2.20893,-0.69716 -4.57989,-0.85335 -7.60661,-0.71227 -3.65965,0.17058 -7.29722,-0.14214 -8.54343,-0.95126 -1.2462,-0.80911 -3.01143,-4.00458 -4.34469,-7.41699 -1.43058,-3.66153 -3.20013,-6.85543 -5.09743,-8.22406 -1.89729,-1.36862 -4.96866,-1.76662 -8.88834,-2.06571 -3.65301,-0.27875 -7.24445,-1.0058 -8.38205,-1.9616 -1.1376,-0.9558 -2.51855,-4.31391 -3.42272,-7.86421 -0.97016,-3.80948 -2.35538,-7.16569 -4.06995,-8.75726 -0.19591,-0.18185 -0.64858,-0.32995 -0.89806,-0.50852 0,0 -6.79913,7.32458 -6.79913,7.32458 2.3047,1.85424 3.83991,4.1071 4.58613,6.91569 0.56872,2.14053 1.50274,5.35556 2.35325,7.31193 1.65827,3.8144 3.46154,4.68908 12.73084,5.2632 5.13491,0.31806 9.44998,3.61216 11.3716,8.38456 0.82725,2.0545 2.13054,5.16145 3.2145,6.99879 2.11341,3.58231 4.24463,4.20718 13.52559,3.87049 1.90177,-0.069 3.50235,0.21957 5.29494,0.94487 0,0 0,0 0,0 m -53.17252,-39.58646 c 0,0 6.73137,-7.25158 6.73137,-7.25158 -2.00204,-1.165 -4.21754,-1.89342 -7.20125,-2.4211 -3.60764,-0.63802 -7.02558,-1.79662 -8.06311,-2.86021 -1.03753,-1.06359 -1.72543,-4.22147 -2.18407,-7.85627 -0.49211,-3.90015 -1.50479,-7.35778 -3.00969,-9.14892 -1.50489,-1.79113 -4.78759,-3.34385 -8.54457,-4.50078 -3.50136,-1.07822 -6.78551,-2.62633 -7.68412,-3.80963 -0.89861,-1.1833 -1.44554,-4.80978 -1.5443,-8.47208 -0.10597,-3.92964 -0.3463,-7.02533 -1.62024,-8.98746 -0.14557,-0.22419 -0.54836,-0.47837 -0.74667,-0.71246 0,0 -8.38213,5.44222 -8.38213,5.44222 1.78205,2.36097 2.80902,4.86553 2.84603,7.77133 0.0282,2.21461 0.23535,5.50086 0.58149,7.60584 0.67489,4.10414 2.38014,5.26443 11.22722,8.08909 4.90101,1.56478 8.43974,5.67474 9.13643,10.7721 0.29992,2.19439 0.8802,5.4538 1.4826,7.50023 1.1745,3.98998 2.94967,4.98599 12.07764,6.69759 1.87043,0.35073 3.30769,1.04101 4.89737,2.14209 0,0 0,0 0,0 m -42.36672,-50.50169 c 0,0 8.29858,-5.38798 8.29858,-5.38798 -1.65688,-1.61868 -3.71806,-2.81706 -6.4829,-4.05664 -3.34302,-1.49879 -6.46476,-3.40963 -7.21195,-4.69393 -0.74718,-1.28429 -0.89797,-4.9246 -0.54873,-8.57154 0.37473,-3.91318 0.21832,-7.5561 -0.85796,-9.63324 -1.07628,-2.07713 -3.67167,-3.81161 -7.03616,-5.84473 -3.13559,-1.8948 -6.02889,-4.16083 -6.61419,-5.52652 -0.58529,-1.3657 -0.31914,-4.98708 0.47124,-8.56443 0.84808,-3.83851 1.10878,-7.46372 0.29315,-9.65635 -0.0932,-0.25053 -0.4309,-0.58639 -0.57341,-0.85808 0,0 -9.36683,3.48431 -9.36683,3.48431 1.22458,2.69263 1.59327,5.39664 0.99564,8.24057 -0.45547,2.16745 -1.05617,5.45718 -1.17779,7.58697 -0.23713,4.1525 1.00865,5.73609 9.02397,10.42696 4.44024,2.59861 6.84001,7.47253 6.40245,12.59864 -0.18837,2.20677 -0.40996,5.55905 -0.27143,7.6878 0.27009,4.15049 1.64744,5.60116 10.17476,9.28007 1.74734,0.75386 3.20893,2.03214 4.48156,3.48812 0,0 0,0 0,0 M 74.9086,488.20884 c 0,0 9.27347,-3.44958 9.27347,-3.44958 -1.26422,-1.94092 -2.92593,-3.59379 -5.35428,-5.40599 -2.93615,-2.19116 -5.47635,-4.76713 -5.92584,-6.18335 -0.44949,-1.41621 0.35145,-4.55951 1.57141,-8.01405 1.30902,-3.70673 1.95702,-7.25828 1.41453,-9.53393 -0.5425,-2.27565 -2.77652,-5.14022 -5.61695,-7.85781 -2.64718,-2.5327 -4.8837,-5.39125 -5.15705,-6.85172 -0.27336,-1.46047 0.86911,-4.94967 2.42121,-8.26827 1.66541,-3.56087 2.8516,-6.43473 2.59179,-8.75967 -0.0297,-0.26565 -0.27591,-0.67336 -0.34831,-0.97148 0,0 -9.93207,1.10987 -9.93207,1.10987 0.53536,2.90916 0.32479,5.60767 -0.94377,8.22221 -0.96681,1.99263 -2.26084,5.02424 -2.89421,7.06129 -1.23492,3.97171 -0.24353,5.77651 6.40031,12.26566 3.68048,3.59479 4.99307,8.86365 3.33007,13.73221 -0.71592,2.09589 -1.66085,5.27315 -2.04071,7.37231 -0.74062,4.09279 0.405,5.78357 7.79025,11.41452 1.51332,1.15385 2.49548,2.41941 3.42015,4.11778 0,0 0,0 0,0 M 59.70675,424.03847 c 0,0 9.83308,-1.09881 9.83308,-1.09881 -0.75604,-2.18947 -2.05577,-4.1809 -3.97179,-6.5282 -2.31669,-2.83815 -4.24599,-5.94157 -4.33795,-7.42455 -0.092,-1.48298 1.40832,-4.79862 3.35677,-7.90115 2.09069,-3.32902 3.58655,-6.6456 3.55754,-8.98483 -0.029,-2.33924 -1.57906,-5.03589 -3.66976,-8.36491 -1.94845,-3.10253 -3.52331,-6.42187 -3.43135,-7.90485 0.0919,-1.48298 1.94691,-4.59193 4.2636,-7.43008 2.48582,-3.04534 4.33717,-6.15924 4.59697,-8.48419 0.0297,-0.26565 -0.12047,-0.71765 -0.12528,-1.02441 0,0 -9.93207,-1.10987 -9.93207,-1.10987 -0.12,2.95558 -0.99496,5.53313 -2.80926,7.80324 -1.38274,1.73012 -3.38844,4.39466 -4.45555,6.24183 -2.08058,3.60148 -1.66683,5.5712 3.38563,13.36364 2.79889,4.31678 2.75658,9.73721 0.0655,14.12203 -1.15849,1.88764 -2.86338,4.78123 -3.69412,6.74608 -1.61972,3.83092 -0.83846,5.91251 4.95967,13.16725 1.18809,1.48658 1.92295,2.93993 2.40835,4.81178 0,0 0,0 0,0 m 0,-66.27146 c 0,0 9.83308,1.09881 9.83308,1.09881 -0.25409,-2.30236 -1.00826,-4.5233 -2.35899,-7.23558 -1.63319,-3.27946 -2.7558,-6.72318 -2.51837,-8.18992 0.23743,-1.46674 2.50755,-4.36046 5.09186,-6.95728 2.77297,-2.7864 4.89112,-5.08774 5.43361,-7.36339 0.5425,-2.27564 -0.1771,-5.8452 -1.48612,-9.55193 -1.21995,-3.45454 -1.94418,-7.02098 -1.5294,-8.44774 0.41478,-1.42677 2.99151,-4.03324 5.87333,-6.29538 3.09219,-2.42729 5.41909,-4.47777 6.23471,-6.6704 0.0932,-0.25053 0.0571,-0.72545 0.12677,-1.02422 0,0 -9.36683,-3.48431 -9.36683,-3.48431 -0.83286,2.83835 -2.22405,5.16057 -4.53498,6.92257 -1.76124,1.34288 -4.26812,3.47244 -5.75203,5.00502 -2.89321,2.9881 -2.78801,5.05761 0.21398,13.84611 1.66301,4.86856 0.49409,10.17166 -3.18638,13.76646 -1.58443,1.54754 -3.84254,3.95977 -5.12839,5.66193 -2.50706,3.31875 -2.21286,5.34771 1.84119,13.70321 0.83072,1.71213 1.15272,3.28321 1.21296,5.21604 0,0 0,0 0,0 m 15.20185,-64.17037 c 0,0 9.27347,3.44958 9.27347,3.44958 0.31157,-2.29528 0.0381,-4.66951 -0.61559,-7.62816 -0.79038,-3.57735 -1.12452,-7.2269 -0.53923,-8.5926 0.5853,-1.36569 3.41131,-3.66154 6.5469,-5.55633 3.36449,-2.03312 6.18924,-4.33495 7.21452,-6.43773 1.02528,-2.10277 0.85696,-5.22631 0.48222,-9.13948 -0.34924,-3.64694 -0.26264,-7.32356 0.48454,-8.60786 0.74719,-1.28429 3.80558,-3.23303 7.1486,-4.73182 3.58706,-1.6082 6.64469,-3.56281 7.91863,-5.52494 0.14556,-0.2242 0.21383,-0.69556 0.34697,-0.97196 0,0 -8.38213,-5.44222 -8.38213,-5.44222 -1.4315,2.58856 -3.3749,4.49989 -6.01422,5.71605 -2.01151,0.92688 -5.00372,2.40964 -6.78582,3.58218 -3.47464,2.28614 -3.9904,4.23674 -2.97485,13.46812 0.56257,5.1139 -1.90597,9.9535 -6.28151,12.65962 -1.88365,1.16497 -4.70025,2.98984 -6.32638,4.37059 -3.17051,2.69208 -3.49888,4.67009 -1.36796,13.70938 0.43665,1.85225 0.2819,3.78779 -0.12816,5.67758 0,0 0,0 0,0 m 29.76096,-59.2601 c 0,0 8.29858,5.38798 8.29858,5.38798 0.80439,-2.17218 1.13202,-4.49403 1.13934,-7.52403 0.009,-3.66361 0.55399,-7.24177 1.42324,-8.44679 0.86926,-1.20503 4.20065,-2.77043 7.67441,-3.93452 3.72736,-1.24906 6.65785,-2.34414 8.16274,-4.13528 1.5049,-1.79113 2.4611,-5.29742 2.95321,-9.19757 0.45863,-3.6348 1.40929,-7.14118 2.42014,-8.23016 1.01086,-1.08897 4.47865,-2.25666 8.06935,-2.98395 3.85284,-0.78039 6.83209,-1.56036 8.54667,-3.15193 0.19591,-0.18186 0.37723,-0.62227 0.57384,-0.85779 0,0 -6.79913,-7.32458 -6.79913,-7.32458 -2.02036,2.16055 -4.29741,3.61112 -7.15366,4.14671 -2.17685,0.40818 -5.36684,1.18495 -7.38089,1.88804 -3.92687,1.37084 -4.75925,3.26289 -6.01687,12.46441 -0.69669,5.09736 -4.12137,9.30314 -9.02238,10.86793 -2.10987,0.67363 -5.21391,1.81365 -7.12601,2.75949 -3.72809,1.84414 -4.38558,3.78153 -4.50384,13.06784 -0.0242,1.90287 -0.44662,3.44923 -1.25874,5.2042 0,0 0,0 0,0 m 42.36672,-50.50169 c 0,0 6.73137,7.25158 6.73137,7.25158 1.31054,-1.90994 2.12133,-4.15529 2.86912,-7.09157 0.90417,-3.5503 2.23646,-6.96489 3.37406,-7.92069 1.1376,-0.9558 4.68188,-1.74042 8.33488,-2.01917 3.91968,-0.29909 7.46492,-1.08953 9.328,-2.50438 1.86309,-1.41484 3.6163,-4.56517 4.95659,-8.26071 1.24911,-3.4441 2.62622,-6.37297 3.87243,-7.18209 1.2462,-0.80911 4.84429,-1.1843 8.50394,-1.01372 3.92681,0.18305 7.52826,-0.19849 9.55036,-1.37491 0.23105,-0.13442 0.50462,-0.5243 0.74813,-0.71092 0,0 -5.02564,-8.63833 -5.02564,-8.63833 -2.44532,1.66441 -5.03261,2.50988 -7.93674,2.40453 -2.21333,-0.0803 -5.54236,-0.0911 -7.66178,0.15143 -4.1323,0.47281 -5.45108,2.00961 -8.7074,10.70708 -1.80392,4.81813 -6.16479,8.04676 -11.29032,8.49112 -2.20651,0.19129 -5.53247,0.56024 -7.60617,1.06077 -4.04316,0.97588 -5.21103,2.60469 -7.37299,11.63661 -0.44301,1.85074 -1.45169,3.5099 -2.66784,5.01337 0,0 0,0 0,0 m 53.17252,-39.58646 c 0,0 4.97556,8.55223 4.97556,8.55223 1.6978,-1.57571 3.02997,-3.51726 4.40319,-6.21822 1.66038,-3.26578 3.75417,-6.23073 5.07342,-6.91431 1.31924,-0.68357 4.9938,-0.59575 8.61936,-0.069 3.89022,0.56524 6.99844,0.87585 9.1487,-0.0457 2.15026,-0.92153 4.58534,-3.63541 6.78006,-6.89679 2.04539,-3.03949 4.47447,-5.75488 5.86707,-6.27291 1.39261,-0.51802 5.01969,-0.011 8.55425,0.95284 3.79259,1.03422 6.82152,1.66599 9.06793,1.01293 0.25668,-0.0746 0.61634,-0.38686 0.89772,-0.50912 0,0 -2.78985,-9.59659 -2.78985,-9.59659 -2.77499,1.02435 -5.46632,1.2993 -8.25894,0.49535 -2.12835,-0.61271 -5.33073,-1.34824 -7.44593,-1.62521 -4.12406,-0.54001 -5.71807,0.79208 -10.98225,8.4431 -2.91621,4.23842 -7.86681,6.47748 -12.94718,5.66615 -2.18708,-0.34927 -5.46754,-0.71576 -7.60071,-0.7334 -4.15913,-0.0344 -5.60551,1.43038 -9.89966,9.66506 -0.87992,1.68737 -1.94624,2.89366 -3.46274,4.09354 0,0 0,0 0,0 m 60.55815,-26.13963 c 0,0 2.76205,9.50095 2.76205,9.50095 2.02818,-1.11887 3.76776,-2.76104 5.75283,-5.05024 2.40017,-2.76791 5.12729,-5.21955 6.57262,-5.5641 1.44533,-0.34456 4.9699,0.54754 8.36063,1.93503 3.63825,1.48879 7.16576,2.37643 9.46525,1.94604 2.29948,-0.43039 4.69661,-2.4464 7.61581,-5.0792 2.7206,-2.45367 5.72008,-4.58641 7.19672,-4.75142 1.47664,-0.16501 4.85869,1.11747 8.05372,2.91021 3.42827,1.92362 6.81302,3.20169 9.14795,3.05691 0.26679,-0.0165 0.68614,-0.24235 0.98748,-0.29996 0,0 -0.6185,-9.97473 -0.6185,-9.97473 -2.93204,0.39118 -5.62055,-0.0176 -8.16944,-1.41337 -1.94258,-1.06379 -4.91253,-2.57124 -6.91597,-3.30403 -3.90617,-1.42874 -5.77459,-0.65986 -12.58173,5.65778 -3.77095,3.49976 -9.1208,4.41971 -13.90218,2.52052 -2.05835,-0.81759 -5.20004,-1.98314 -7.27813,-2.46513 -4.05171,-0.93975 -5.83082,-0.0103 -11.81544,7.09138 -1.22632,1.45521 -2.87222,2.4854 -4.63367,3.28336 0,0 0,0 0,0 m 65.28785,-11.51087 c 0,0 0.61234,9.87531 0.61234,9.87531 2.22411,-0.64709 4.27853,-1.78192 6.71766,-3.57959 2.94917,-2.1736 6.14423,-3.88259 7.62995,-3.90101 1.48571,-0.0184 4.72182,1.70786 7.72395,3.80769 3.2213,2.25314 5.84019,3.91232 8.17512,4.0571 2.33493,0.14478 5.72429,-1.19519 9.15256,-3.11881 3.19503,-1.79274 6.58319,-3.13689 8.05983,-2.97188 1.47664,0.16501 4.48376,2.23635 7.20435,4.69002 2.9192,2.6328 5.93034,4.70072 8.23969,5.07455 0.26387,0.0427 0.12042,-0.18449 0.4267,-0.16669 0,0 1.83862,-9.8233 1.83862,-9.8233 -2.93871,-0.33743 -5.10788,-1.28159 -7.28586,-3.2055 -1.65992,-1.46628 -4.46113,-3.64815 -6.22438,-4.84886 -3.43786,-2.34106 -5.46078,-1.84017 -13.60645,2.62051 -4.51245,2.47107 -9.93194,2.26595 -14.10468,-0.74348 -1.79634,-1.29555 -4.55782,-3.0901 -6.45555,-4.06446 -3.70006,-1.89973 -5.64454,-1.23705 -13.17696,4.19545 -1.54348,1.11318 -3.03336,1.71049 -4.92689,2.10295 0,0 0,0 0,0 m 65.80664,3.80516 c 0,0 -1.82029,9.7254 -1.82029,9.7254 2.31482,-0.0838 4.60999,-0.78343 7.4143,-1.93096 3.39072,-1.38749 6.93427,-2.36374 8.3796,-2.01918 1.44533,0.34455 4.19346,2.71262 6.59362,5.48053 2.57539,2.96998 5.33002,5.33599 7.57643,5.98905 2.24642,0.65307 5.828,0.17417 9.59423,-0.95228 3.50999,-1.04981 6.69313,-1.70616 8.08574,-1.18813 1.3926,0.51802 3.84374,3.17624 5.88914,6.21573 2.19471,3.26138 4.65324,5.91864 6.8035,6.84018 0.2457,0.1053 0.72181,0.0924 1.01683,0.17655 0,0 3.93677,-9.18585 3.93677,-9.18585 -2.79437,-0.97022 -5.01987,-2.5364 -6.6671,-4.93049 -1.25541,-1.82463 -3.23568,-4.49639 -4.69406,-6.05328 -2.84344,-3.03551 -4.87152,-3.16076 -13.79612,-0.59149 -4.94396,1.42328 -10.14697,-0.13446 -13.55741,-3.98639 -1.46817,-1.65824 -3.75106,-4.09748 -5.38821,-5.46515 -3.19198,-2.66659 -5.20598,-2.60348 -13.75047,1.03538 -1.75086,0.74564 -3.68449,0.9227 -5.6165,0.84038 0,0 0,0 0,0 m 63.52527,19.02179 c 0,0 -3.89754,9.09429 -3.89754,9.09429 2.27737,0.42309 4.63431,0.3284 7.62131,-0.18028 3.61163,-0.61505 7.24368,-0.70892 8.57922,-0.0577 1.33553,0.65119 3.45977,3.64689 5.19938,6.87115 1.8666,3.45965 3.47623,6.12661 5.49833,7.30304 2.0221,1.17642 5.6551,1.50521 9.58191,1.32216 3.65965,-0.17059 7.29062,0.15259 8.53682,0.96171 1.24621,0.80911 3.00457,4.01488 4.33783,7.42729 1.43058,3.66153 3.193,6.86557 5.0903,8.2342 0.21679,0.15638 0.18524,-0.10565 0.4511,0.0475 0,0 6.04415,-7.95902 6.04415,-7.95902 -2.47623,-1.61807 -3.98425,-3.44553 -5.06969,-6.14125 -0.82725,-2.0545 -2.35434,-5.26001 -3.39294,-7.12336 -2.02498,-3.63303 -4.05271,-4.10337 -13.33368,-3.76667 -5.14137,0.1865 -9.89693,-2.43812 -12.27576,-6.99988 -1.02408,-1.96381 -2.68951,-4.80925 -3.94768,-6.53197 -2.45308,-3.35886 -4.49768,-3.63386 -13.66854,-2.16928 -1.87921,0.30011 -3.48697,0.16984 -5.35452,-0.33186 0,0 0,0 0,0 m 57.12786,32.95227 c 0,0 -5.98391,7.8797 -5.98391,7.8797 2.10711,0.96202 4.46657,1.36831 7.4878,1.59885 3.653,0.27875 7.25234,0.99617 8.38994,1.95197 1.1376,0.9558 2.52669,4.30446 3.43085,7.85476 0.97017,3.80948 2.36377,7.15642 4.07834,8.748 1.71458,1.59157 5.1234,2.76521 8.9944,3.4498 3.60764,0.63802 6.74291,1.46496 7.75376,2.55393 1.01086,1.08898 2.0076,4.55362 2.46624,8.18842 0.49211,3.90015 1.49534,7.36593 3.00024,9.15706 0.17195,0.20466 0.60287,0.40753 0.82838,0.61554 0,0 7.65165,-6.42884 7.65165,-6.42884 -2.05807,-2.12467 -3.34619,-4.51374 -3.73972,-7.39301 -0.29992,-2.19439 -0.87094,-5.46218 -1.47333,-7.50861 -1.17451,-3.98999 -2.93175,-5.00348 -12.05973,-6.71508 -5.05661,-0.94819 -8.99813,-4.66946 -10.31921,-9.6417 -0.56872,-2.14053 -1.51088,-5.34611 -2.36139,-7.30248 -1.65827,-3.8144 -3.47708,-4.66964 -12.74638,-5.24376 -1.89938,-0.11765 -3.70747,-0.8255 -5.39793,-1.76455 0,0 0,0 0,0 m 48.20536,45.47873 c 0,0 -7.57539,6.36476 -7.57539,6.36476 1.84284,1.40333 3.99632,2.36679 6.89213,3.25854 3.50137,1.07822 6.79532,2.6187 7.69393,3.802 0.89861,1.1833 1.45552,4.80239 1.55428,8.46468 0.10597,3.92965 0.36674,7.01134 1.64068,8.97347 1.27394,1.96213 4.38358,3.88387 7.97065,5.49207 3.34302,1.49878 6.45416,3.41597 7.20134,4.70026 0.74719,1.2843 0.88724,4.93068 0.538,8.57762 -0.37474,3.91318 -0.2292,7.56191 0.84708,9.63904 0.12298,0.23734 0.23004,-0.0144 0.39833,0.24216 0,0 8.98298,-4.37996 8.98298,-4.37996 -1.48099,-2.56057 -2.03566,-4.85983 -1.7885,-7.75534 0.18836,-2.20677 0.4207,-5.56513 0.28217,-7.69388 -0.27009,-4.15048 -1.89595,-5.66641 -10.33065,-9.55297 -4.67257,-2.15305 -7.76341,-6.61889 -7.82894,-11.76322 -0.0282,-2.21461 -0.24548,-5.49373 -0.59163,-7.59871 -0.67488,-4.10415 -2.39991,-5.2494 -11.247,-8.07406 -1.81286,-0.57881 -3.19793,-1.4075 -4.63946,-2.69646 0,0 0,0 0,0 m 36.27041,55.07301 c 0,0 -8.89344,4.3363 -8.89344,4.3363 1.44722,1.80857 3.38605,3.23313 5.97934,4.80024 3.13558,1.89479 6.04015,4.15583 6.62545,5.52153 0.58529,1.36569 0.33052,4.98237 -0.45986,8.55972 -0.84809,3.8385 -1.09729,7.45928 -0.28167,9.65191 0.81562,2.19263 3.34291,4.78005 6.49341,7.13117 2.93615,2.19115 5.37449,4.35006 5.78927,5.77682 0.41478,1.42677 -0.25027,4.97679 -1.47023,8.43133 -1.30901,3.70673 -1.969,7.2613 -1.4265,9.53694 0.062,0.26002 0.35627,0.63451 0.46463,0.92153 0,0 9.72147,-2.31751 9.72147,-2.31751 -0.8875,-2.82173 -0.9645,-5.53928 -0.0251,-8.28932 0.71592,-2.09589 1.67275,-5.27645 2.0526,-7.37561 0.74062,-4.09279 -0.38149,-5.79103 -7.76675,-11.42198 -4.0912,-3.11938 -5.95765,-8.22095 -4.89964,-13.25573 0.45547,-2.16745 1.0448,-5.45248 1.16642,-7.58226 0.23713,-4.1525 -1.03105,-5.72585 -9.04637,-10.41671 -1.64243,-0.96122 -2.93731,-2.40812 -4.02298,-4.00837 0,0 0,0 0,0 m 22.67867,62.31737 c 0,0 -9.62458,2.29441 -9.62458,2.29441 1.01841,2.08045 2.50711,3.91205 4.69646,6.00673 2.64717,2.5327 4.89584,5.38882 5.16919,6.84929 0.27335,1.46047 -0.85691,4.94754 -2.409,8.26614 -1.66541,3.56087 -2.82698,6.43136 -2.56718,8.75631 0.2598,2.32494 2.17282,5.43273 4.65864,8.47806 2.31668,2.83815 4.23355,5.9425 4.32551,7.42548 0.0919,1.48298 -1.42081,4.79924 -3.36925,7.90177 -2.0907,3.32901 -3.59907,6.64591 -3.57005,8.98514 0.003,0.26729 0.21563,0.0805 0.2507,0.38525 0,0 9.99312,0.12394 9.99312,0.12394 -0.17237,-2.95298 0.36018,-5.24514 1.88024,-7.72193 1.15849,-1.88764 2.87586,-4.78185 3.70659,-6.7467 1.61972,-3.83092 0.8509,-5.91343 -4.94722,-13.16818 -3.21197,-4.01891 -3.96227,-9.39321 -1.71646,-14.0219 0.96681,-1.99263 2.24856,-5.0224 2.88193,-7.05946 1.23491,-3.97171 0.21918,-5.77196 -6.42466,-12.2611 -1.3614,-1.3297 -2.22306,-2.6949 -2.93398,-4.49325 0,0 0,0 0,0"
         style="fill:#000000" />
      <path
         id="path6783"
         d="m 647.35332,390.96841 c 0.24747,1.34576 1.03386,2.6762 2.68351,3.79768 3.7034,2.51767 6.71433,9.33787 6.42675,13.97565 -0.28757,4.63777 -3.95732,11.04569 -7.94304,13.08724 -4.22109,2.1621 -4.64222,6.03616 -1.07845,9.16535 3.36505,2.95471 5.59034,10.1003 4.73547,14.66767 -0.85486,4.56736 -5.232,10.18742 -9.39877,11.82813 -2.0862,0.82146 -3.36455,2.21848 -3.81503,3.66883 0,0 12.40785,2.95792 12.40785,2.95792 0.23903,-0.32649 0.50741,-0.65666 0.90291,-1.05028 11.43083,-11.37685 12.97334,-20.76759 6.45017,-30.99935 -1.75602,-2.75435 -1.75295,-3.95839 -0.10157,-6.06422 9.95196,-12.69075 10.47645,-22.21181 2.74254,-31.56206 -1.23308,-1.49078 -1.698,-2.38083 -1.6347,-3.31905 0,0 -12.37764,-0.15351 -12.37764,-0.15351 0,0 0,0 0,0 m -8.23757,70.22678 c -0.0544,1.36725 0.42031,2.83801 1.78311,4.29467 3.0594,3.27015 4.33848,10.53347 3.04133,14.99543 -1.29715,4.46195 -6.44736,9.85056 -10.78304,10.97116 -4.59173,1.18676 -5.93502,4.84347 -3.14087,8.67558 2.63834,3.61843 3.07895,11.00374 1.24854,15.27472 -1.83041,4.27097 -7.54518,9.01653 -11.98497,9.60146 -2.22291,0.29285 -3.70483,1.24421 -4.46048,2.56156 0,0 11.46527,5.59029 11.46527,5.59029 0.30443,-0.26657 0.6383,-0.53033 1.11006,-0.82832 13.635,-8.61298 17.52788,-17.27845 13.39732,-28.68807 -1.11193,-3.07142 -0.7614,-4.21132 1.31049,-5.90509 12.48617,-10.20747 15.40903,-19.2541 9.91956,-30.07568 -0.87522,-1.72536 -1.13314,-2.69583 -0.86515,-3.5972 0,0 -12.04117,-2.87051 -12.04117,-2.87051 0,0 0,0 0,0 m -24.15594,66.44306 c -0.351,1.32255 -0.33289,2.97244 0.63755,4.71523 2.1786,3.91249 1.81086,11.34925 -0.52583,15.36566 -2.33668,4.01641 -8.49527,8.08951 -12.97325,8.12892 -4.74242,0.0417 -6.86012,3.31233 -5.0756,7.7064 1.685,4.14905 0.46203,11.52604 -2.34821,15.2266 -2.81025,3.70057 -9.24764,6.76102 -13.70789,6.36096 -2.23314,-0.20032 -4.00725,0.4727 -5.05998,1.56731 0,0 9.76606,8.20535 9.76606,8.20535 0.36001,-0.18473 0.74791,-0.35959 1.27787,-0.5342 15.31749,-5.04689 20.92767,-12.74291 19.67885,-24.81276 -0.33618,-3.24915 0.21073,-4.31888 2.63059,-5.46164 14.58316,-6.8868 19.31795,-15.12892 16.60595,-26.95626 -0.43239,-1.88572 -0.23759,-3.26517 0.22034,-4.08649 0,0 -11.12645,-5.42508 -11.12645,-5.42508 0,0 0,0 0,0 m -38.93359,59.17159 c -0.66143,1.19785 -0.89625,2.72537 -0.33088,4.63833 1.26924,4.29452 -0.85494,11.3609 -4.01621,14.76649 -3.16127,3.40558 -10.18836,5.9167 -14.56517,4.96942 -4.63528,-1.00322 -7.47598,1.66483 -6.70375,6.34414 0.72916,4.41838 -2.19388,11.23351 -5.75153,14.22262 -3.55766,2.9891 -10.78487,4.67761 -15.01166,3.19838 -2.11625,-0.74062 -3.86792,-0.55942 -5.13628,0.27587 0,0 7.71436,10.15837 7.71436,10.15837 0.3919,-0.10072 0.80883,-0.18566 1.36426,-0.23901 16.05363,-1.54191 23.42412,-7.58532 24.86607,-19.63361 0.38817,-3.24335 1.21471,-4.11277 3.82676,-4.69483 15.7414,-3.50777 22.43964,-10.30574 22.38263,-22.43988 -0.009,-1.93464 0.19531,-2.91777 0.83886,-3.60342 0,0 -9.47746,-7.96287 -9.47746,-7.96287 0,0 0,0 0,0 m -51.42098,48.53968 c -0.90948,1.02234 -1.62816,2.51717 -1.54787,4.51031 0.18023,4.47453 -3.48372,10.97788 -7.38101,13.50825 -3.89729,2.53037 -10.99686,3.21757 -15.0584,1.33139 -4.3014,-1.99758 -7.77448,-0.0198 -8.16375,4.70681 -0.36757,4.46305 -4.76647,10.52391 -8.94312,12.56038 -4.17666,2.03647 -11.29307,1.88025 -15.09465,-0.48658 -1.90336,-1.18502 -3.78331,-1.37104 -5.21619,-0.86777 0,0 5.02463,11.7242 5.02463,11.7242 0.40463,-0.003 0.82972,0.0158 1.38154,0.0985 15.94918,2.39174 24.37992,-1.99318 28.70947,-13.32878 1.16549,-3.0515 2.1259,-3.77491 4.80105,-3.70313 16.12172,0.43255 24.03009,-4.85231 26.94285,-16.6318 0.4644,-1.8781 1.25283,-3.03689 2.03183,-3.56361 0,0 -7.48638,-9.85817 -7.48638,-9.85817 0,0 0,0 0,0 m -61.34345,35.4064 c -1.12999,0.77165 -2.02755,2.02977 -2.3842,3.99239 -0.8007,4.40599 -5.86113,9.77756 -10.21626,11.39759 -4.35513,1.62004 -11.7473,0.71307 -15.23274,-2.09861 -3.69127,-2.97773 -7.42566,-1.86836 -8.83508,2.65998 -1.33084,4.27583 -6.99418,9.04852 -11.5142,10.12605 -4.52002,1.07753 -11.73657,-0.66398 -14.85296,-3.87987 -1.56029,-1.61014 -3.20756,-2.23279 -4.71571,-2.05415 0,0 2.34668,12.53782 2.34668,12.53782 0.3955,0.0855 0.80631,0.19632 1.32679,0.39743 15.04361,5.81262 24.32303,3.73694 31.01762,-6.3835 1.80215,-2.72438 2.9246,-3.12955 5.51989,-2.47678 15.64037,3.9339 24.63114,0.85877 30.0446,-10.00102 0.86311,-1.73146 1.48836,-2.51722 2.37172,-2.8396 0,0 -4.87615,-11.37773 -4.87615,-11.37773 0,0 0,0 0,0 m -67.72241,20.29696 c -1.27108,0.50663 -2.58425,1.51399 -3.40523,3.33198 -1.84307,4.08129 -8.03587,8.24104 -12.65381,8.75708 -4.61793,0.51604 -11.56088,-1.97635 -14.2588,-5.55056 -2.85725,-3.7853 -6.74594,-3.52274 -9.21459,0.52671 -2.33101,3.82364 -8.99326,7.27086 -13.63958,7.21323 -4.64632,-0.0576 -10.93825,-3.39003 -13.26926,-7.21367 -1.16707,-1.91441 -2.76483,-2.9172 -4.27089,-3.11265 0,0 -0.78942,12.73108 -0.78942,12.73108 0.3626,0.1796 0.73385,0.38748 1.18938,0.70972 13.16629,9.31372 22.71062,9.15895 31.66603,0.97108 2.41076,-2.20415 3.59896,-2.41845 5.95789,-1.15471 14.21604,7.61581 23.67171,6.4538 31.55215,-2.77329 1.25644,-1.47115 2.48105,-2.14673 3.41347,-2.2687 0,0 -2.27734,-12.1673 -2.27734,-12.1673 0,0 0,0 0,0 m -70.72183,4.10807 c -1.35637,0.18053 -2.7241,0.90009 -3.92587,2.49221 -2.69793,3.57421 -9.64514,6.11568 -14.26308,5.59964 -4.61794,-0.51604 -10.81738,-4.62714 -12.66045,-8.70843 -1.9519,-4.32231 -5.78883,-4.99892 -9.08925,-1.5931 -3.11639,3.21589 -10.33283,4.95684 -14.85285,3.8793 -4.52002,-1.07753 -10.1832,-5.85077 -11.51404,-10.1266 -0.66631,-2.14082 -1.85564,-3.43953 -3.28224,-3.96035 0,0 -3.56079,12.24845 -3.56079,12.24845 0.31442,0.25471 0.63108,0.53891 1.0049,0.95316 10.80461,11.97319 20.03962,14.23521 30.57935,8.22233 2.83726,-1.61864 4.02702,-1.49105 6.0491,0.2619 12.18597,10.56402 21.63156,11.81626 31.35322,4.55473 1.55,-1.15776 2.46197,-1.57806 3.39591,-1.46839 0,0 0.76609,-12.35485 0.76609,-12.35485 0,0 0,0 0,0 m -69.6314,-12.2673 c -1.36295,-0.12116 -2.99382,0.20318 -4.54638,1.45563 -3.48545,2.81167 -10.89349,3.76469 -15.24861,2.14465 -4.35513,-1.62004 -9.14188,-6.90151 -10.04975,-11.28667 -0.96148,-4.64412 -4.62566,-6.2387 -8.65173,-3.7321 -3.80158,2.36682 -10.91787,2.52278 -15.09453,0.48631 -4.17665,-2.03647 -8.57527,-8.09784 -8.94285,-12.56088 -0.18403,-2.23455 -1.15966,-3.84847 -2.41818,-4.69851 0,0 -6.4144,11.0254 -6.4144,11.0254 0.24357,0.32311 0.48219,0.6754 0.74486,1.16769 7.59198,14.2288 16.15431,18.35588 27.83529,15.07026 3.14448,-0.88448 4.29999,-0.55179 5.83779,1.63837 9.26752,13.19886 18.22563,16.36178 29.42021,11.67966 1.78483,-0.7465 3.18553,-0.81503 4.07272,-0.50332 0,0 3.45556,-11.88649 3.45556,-11.88649 0,0 0,0 0,0 m -65.0306,-28.05652 c -1.29331,-0.44684 -2.83849,-0.41699 -4.62659,0.46719 -4.01421,1.98495 -11.3539,1.13773 -15.25119,-1.39264 -3.89729,-2.53038 -7.5889,-8.99332 -7.40867,-13.46784 0.19089,-4.73877 -2.93227,-7.06836 -7.40866,-5.50177 -4.22679,1.47922 -11.45365,-0.20974 -15.0113,-3.19885 -3.55765,-2.9891 -6.4803,-9.80466 -5.75114,-14.22305 0.36508,-2.21219 -0.11509,-3.90647 -1.15634,-5.01202 0,0 -8.67797,9.34862 -8.67797,9.34862 0.16671,0.3687 0.32219,0.76476 0.4704,1.30271 4.28373,15.54819 11.53199,21.73704 23.64859,21.08242 3.26175,-0.17623 4.26442,0.47706 5.28714,2.95005 6.16339,14.90333 14.02144,20.26569 25.96709,18.13447 1.90459,-0.3398 2.90819,-0.30653 3.6938,0.21029 0,0 6.22484,-10.69958 6.22484,-10.69958 0,0 0,0 0,0 m -56.72019,-42.21447 c -1.16369,-0.71981 -2.76825,-1.16348 -4.71787,-0.74152 -4.37682,0.94728 -11.43934,-1.52929 -14.60061,-4.93487 -3.16127,-3.40558 -5.07001,-10.27338 -3.90722,-14.59793 1.23147,-4.57993 -1.34311,-7.63927 -6.06675,-7.21556 -4.46024,0.40006 -10.89741,-2.66058 -13.70765,-6.36114 -2.81025,-3.70057 -4.03274,-11.07789 -2.34774,-15.22694 0.84365,-2.07733 0.68526,-3.9479 -0.0545,-5.27427 0,0 -10.6984,6.94609 -10.6984,6.94609 0.0716,0.39825 0.12565,0.82029 0.13799,1.37814 0.35665,16.12357 6.20545,23.64037 18.11394,25.97031 3.20572,0.62721 4.10166,1.43919 4.48841,4.08722 2.33078,15.95819 8.96349,22.81699 21.06845,23.65997 1.92998,0.1344 3.21738,0.70621 3.87039,1.38285 0,0 8.42151,-9.07235 8.42151,-9.07235 0,0 0,0 0,0 M 87.90197,558.35551 c -0.95265,-0.98223 -2.34514,-1.65265 -4.33982,-1.6702 -4.47798,-0.0394 -10.67818,-4.08692 -13.01487,-8.10333 -2.33668,-4.01642 -2.74715,-11.42968 -0.56856,-15.34217 2.30726,-4.14354 0.55506,-7.62277 -4.14692,-8.24223 -4.43979,-0.58493 -10.15404,-5.33074 -11.98445,-9.60172 -1.83041,-4.27097 -1.38926,-11.65649 1.24907,-15.27492 1.32097,-1.81166 1.65406,-3.54089 1.22124,-4.9966 0,0 -11.9552,4.44714 -11.9552,4.44714 -0.0169,0.40428 -0.0562,0.82796 -0.16573,1.37508 -3.16638,15.81363 0.54982,24.55483 11.66064,29.43237 2.99099,1.31301 3.60536,2.33776 3.40304,5.00622 -1.21928,16.08136 3.43512,24.37026 15.05761,27.85716 1.85306,0.55594 2.73374,1.03838 3.20171,1.85402 0,0 10.38224,-6.74082 10.38224,-6.74082 0,0 0,0 0,0 m -31.73075,-63.1767 c -0.71565,-1.16626 -1.95512,-2.27938 -3.88642,-2.77854 -4.33568,-1.1206 -9.53235,-6.49447 -10.8295,-10.95643 -1.29715,-4.46196 0.0804,-11.45285 3.05893,-14.79684 3.15442,-3.54145 2.23418,-7.43084 -2.17865,-9.16844 -4.166765,-1.64071 -8.543623,-7.26083 -9.39849,-11.8282 -0.854867,-4.56737 1.370998,-11.71304 4.736044,-14.66775 1.684809,-1.47935 2.387866,-3.2241 2.320826,-4.74131 0,0 -12.676635,1.41656 -12.676635,1.41656 -0.114411,0.38813 -0.255196,0.78966 -0.494106,1.29391 -6.905172,14.57447 -5.069462,23.91919 4.532969,31.33769 2.584941,1.99702 3.015283,3.12286 2.174176,5.66336 -5.068863,15.31024 -2.235545,24.38289 8.199516,30.57564 1.66375,0.98736 2.5605,2.06803 2.83944,2.96607 0,0 11.6019,-4.31572 11.6019,-4.31572 0,0 0,0 0,0 M 39.83873,426.25865 c -0.411601,-1.30495 -1.356122,-2.52821 -3.131534,-3.4376 -3.985714,-2.04155 -7.704543,-8.44522 -7.992119,-13.08299 -0.287576,-4.63777 2.673951,-11.45613 6.377348,-13.9738 3.922104,-2.66635 3.915988,-6.56352 -0.0061,-9.22986 -3.703397,-2.51768 -6.689331,-9.33695 -6.401756,-13.97472 0.287576,-4.63778 3.982155,-11.04354 7.96787,-13.08509 1.995561,-1.02215 3.072071,-2.41582 3.341587,-3.91041 0,0 -12.676635,-1.41656 -12.676635,-1.41656 -0.197262,0.35329 -0.423205,0.71384 -0.76753,1.15292 -9.951956,12.69075 -10.526267,22.20872 -2.792359,31.55897 2.081941,2.51705 2.173554,3.71547 0.794586,6.00895 -8.310256,13.82158 -7.875426,23.34819 0.952953,31.67287 1.407575,1.32727 1.978755,2.15316 2.031689,3.09202 0,0 12.302016,-1.3747 12.302016,-1.3747 0,0 0,0 0,0 m 0,-70.71182 c -0.113398,-1.36362 -0.733427,-2.91915 -2.232369,-4.2353 -3.365046,-2.95471 -5.614824,-10.10426 -4.759957,-14.67163 0.854867,-4.56737 5.219868,-10.18985 9.38663,-11.83056 4.41284,-1.7376 5.3096,-5.63258 2.15517,-9.17404 -2.97852,-3.34399 -4.36768,-10.33811 -3.07053,-14.80007 1.29715,-4.46196 6.47087,-9.8431 10.80655,-10.9637 2.17078,-0.56105 3.56973,-1.8057 4.19349,-3.19039 0,0 -11.9552,-4.44714 -11.9552,-4.44714 -0.27702,0.29495 -0.58362,0.58997 -1.02411,0.93249 -12.731398,9.89992 -15.615944,19.66324 -10.126483,30.48481 1.477746,2.91313 1.410108,3.69103 -0.486671,5.57885 -11.430831,11.37685 -12.924655,20.7767 -6.40148,31.00846 1.040039,1.63133 1.368557,3.00613 1.212944,3.93352 0,0 12.302016,1.3747 12.302016,1.3747 0,0 0,0 0,0 M 56.17129,286.62667 c 0.22053,-1.35044 -0.0715,-2.86807 -1.24675,-4.47987 -2.63834,-3.61843 -3.10181,-11.01288 -1.2714,-15.28386 1.83041,-4.27098 7.52279,-9.02679 11.96257,-9.61172 4.70198,-0.61946 6.44343,-4.1041 4.13618,-8.24763 -2.1786,-3.9125 -1.78924,-11.33737 0.54745,-15.35378 2.33668,-4.01641 8.51632,-8.07657 12.9943,-8.11597 2.24202,-0.0197 3.82886,-0.78336 4.73945,-1.99879 0,0 -10.6984,-6.94609 -10.6984,-6.94609 -0.33465,0.22748 -0.69818,0.44858 -1.20274,0.68685 -14.58316,6.8868 -19.36062,15.1041 -16.64862,26.93143 0.73006,3.18387 0.28006,4.29126 -1.98247,5.72045 -13.635,8.61298 -17.48262,17.29785 -13.35206,28.70747 0.65857,1.81912 0.79636,2.81378 0.42059,3.67579 0,0 11.6019,4.31572 11.6019,4.31572 0,0 0,0 0,0 m 31.73075,-63.1767 c 0.50958,-1.2699 0.65744,-2.93406 -0.0931,-4.78223 -1.685,-4.14905 -0.48215,-11.54055 2.3281,-15.24112 2.81024,-3.70056 9.23782,-6.76865 13.69807,-6.36859 4.72364,0.4237 7.27958,-2.65129 6.04812,-7.23122 -1.1628,-4.32455 0.7369,-11.20055 3.89817,-14.60613 3.16127,-3.40558 10.20628,-5.89922 14.5831,-4.95194 2.19137,0.47428 3.99736,-0.0152 5.17722,-0.97141 0,0 -8.67797,-9.34862 -8.67797,-9.34862 -0.38006,0.13886 -0.78659,0.26447 -1.33406,0.3723 -15.8235,3.11659 -22.8097,10.58753 -22.75269,22.72167 0.0154,3.26646 -0.39376,3.93154 -2.93547,4.76899 -15.31749,5.0469 -20.88811,12.77296 -19.63929,24.84281 0.19911,1.92438 -0.12777,3.29529 -0.6824,4.05467 0,0 10.38224,6.74082 10.38224,6.74082 0,0 0,0 0,0 m 45.53334,-54.26715 c 0.80429,-1.10699 1.22597,-2.59382 0.90116,-4.56196 -0.72915,-4.41839 2.17736,-11.25223 5.73501,-14.24134 3.55765,-2.9891 10.76933,-4.69705 14.99612,-3.21782 4.47639,1.56659 7.59234,-0.77275 7.40145,-5.51151 -0.18023,-4.47453 3.49772,-10.95744 7.39501,-13.48781 3.89729,-2.53037 11.22433,-3.39814 15.23854,-1.4132 2.00982,0.99382 3.7705,1.02816 5.13147,0.35422 0,0 -6.4144,-11.0254 -6.4144,-11.0254 -0.40128,0.0521 -0.82546,0.0854 -1.38325,0.0704 -16.12171,-0.43255 -24.05703,4.81081 -26.96978,16.59031 -0.7841,3.171 -1.67752,3.97189 -4.34138,4.22775 -16.05363,1.54191 -23.39205,7.62347 -24.83401,19.67176 -0.2299,1.92095 -0.55416,2.87131 -1.27745,3.47224 0,0 8.42151,9.07235 8.42151,9.07235 0,0 0,0 0,0 m 56.72019,-42.21447 c 1.02766,-0.90346 1.90078,-2.33789 2.06451,-4.32593 0.36757,-4.46304 4.48452,-10.27301 8.61024,-12.41078 4.12573,-2.13777 11.60934,-2.06286 15.41092,0.30396 4.02607,2.5066 7.61431,0.98881 8.46228,-3.67737 0.80069,-4.40599 5.87027,-9.75469 10.2254,-11.37473 4.35513,-1.62004 11.75532,-0.68977 15.24077,2.12191 1.74507,1.40775 3.57662,1.78163 5.0601,1.45645 0,0 -3.56079,-12.24845 -3.56079,-12.24845 -0.40197,-0.0465 -0.82163,-0.11659 -1.35928,-0.26587 -15.53967,-4.314554 -25.08138,-0.77405 -30.49484,10.08575 -1.45728,2.92342 -2.12207,3.33301 -4.7686,2.93613 -15.94918,-2.39175 -24.35833,2.03746 -28.68788,13.37306 -0.69029,1.80732 -1.59012,2.89878 -2.42767,3.32629 0,0 6.22484,10.69958 6.22484,10.69958 0,0 0,0 0,0 m 65.0306,-28.05652 c 1.21548,-0.62843 2.25945,-1.76799 2.85226,-3.67263 1.33084,-4.27584 6.98787,-9.07239 11.50788,-10.14992 4.52002,-1.07754 11.73143,0.63977 14.84782,3.85567 3.30041,3.40581 7.13527,2.71728 9.08717,-1.60503 1.84307,-4.08129 8.03923,-8.21643 12.65717,-8.732467 4.61794,-0.516037 11.56304,2.001176 14.26096,5.575397 1.35079,1.78953 2.90913,2.60974 4.42781,2.61763 0,0 -0.78942,-12.731084 -0.78942,-12.731084 -0.38201,-0.13342 -0.7761,-0.293843 -1.26795,-0.557341 -14.21605,-7.615814 -23.67723,-6.503245 -31.55768,2.723846 -2.12138,2.4839 -3.27956,2.79246 -5.77582,1.827938 -15.04361,-5.812614 -24.31157,-3.688866 -31.00616,6.431571 -1.06737,1.61358 -1.78357,2.31742 -2.6996,2.52993 0,0 3.45556,11.88649 3.45556,11.88649 0,0 0,0 0,0 m 69.6314,-12.2673 c 1.32367,-0.34671 2.74937,-1.23515 3.78769,-2.93837 2.33101,-3.823636 8.62265,-7.168262 13.26897,-7.225887 4.64632,-0.05763 11.30886,3.365138 13.63987,7.188777 2.46865,4.04945 6.35795,4.29982 9.21519,0.51453 2.69793,-3.574219 9.64299,-6.090849 14.26092,-5.574812 4.61794,0.516037 10.81402,4.651752 12.65709,8.733042 0.92277,2.04341 2.39269,3.18547 3.86336,3.56437 0,0 2.34668,-12.537822 2.34668,-12.537822 -0.33781,-0.222755 -1.1226,-0.54613 -1.54422,-0.911631 -12.18597,-10.564025 -21.62604,-11.86571 -31.3477,-4.604179 -2.61703,1.95478 -3.39503,2.021355 -5.57977,0.475878 -13.16629,-9.313718 -22.71124,-9.108918 -31.66665,-0.921045 -1.42783,1.305455 -2.72719,1.875747 -3.66752,1.882296 0,0 0.76609,12.354853 0.76609,12.354853 0,0 0,0 0,0 m 70.72183,4.10807 c 1.36827,-0.0126 2.81401,-0.5588 4.20218,-1.9913 3.11639,-3.2159 10.33798,-4.98104 14.858,-3.90351 4.52002,1.07753 10.18951,5.82691 11.52035,10.10274 1.40941,4.52834 5.14731,5.62618 8.83858,2.64846 3.48544,-2.81168 10.88545,-3.7414 15.24058,-2.12136 4.35513,1.62003 9.42449,6.96927 10.22518,11.37526 0.40088,2.20598 1.42337,3.63976 2.776,4.33028 0,0 5.02463,-11.7242 5.02463,-11.7242 -0.28109,-0.29107 -0.56081,-0.61169 -0.88146,-1.06835 -9.26752,-13.19886 -18.20846,-16.407941 -29.40303,-11.72582 -3.01354,1.26041 -4.18949,1.03124 -5.98235,-0.95554 -10.80461,-11.973185 -20.05107,-14.18713 -30.59081,-8.174258 -1.68043,0.958677 -2.63711,1.26381 -3.55051,1.040294 0,0 -2.27734,12.167304 -2.27734,12.167304 0,0 0,0 0,0 m 67.72241,20.29696 c 1.33809,0.28609 3.01281,0.12485 4.70619,-0.92944 3.80158,-2.36683 10.92314,-2.53392 15.0998,-0.49745 4.17665,2.03647 8.58661,8.07595 8.95419,12.539 0.38927,4.7266 3.75123,6.69563 8.00249,4.59346 4.0142,-1.98495 11.34095,-1.11668 15.23824,1.4137 3.89729,2.53037 7.5749,9.01375 7.39467,13.48828 -0.0902,2.24029 0.70823,3.92574 1.85337,4.92328 0,0 7.71436,-10.15837 7.71436,-10.15837 -0.20224,-0.35048 -0.7552,-0.9974 -0.96844,-1.51303 -6.16339,-14.90333 -13.9945,-20.30718 -25.94015,-18.17596 -3.21573,0.57372 -3.94098,0.28437 -5.20075,-2.07669 -7.59197,-14.2288 -16.17698,-18.31212 -27.85797,-15.02649 -1.86239,0.52385 -3.27718,0.45932 -4.11985,0.042 0,0 -4.87615,11.37773 -4.87615,11.37773 0,0 0,0 0,0 m 61.34345,35.4064 c 1.22897,0.60162 2.76621,0.76093 4.649,0.10201 4.22678,-1.47922 11.46917,0.19031 15.02683,3.17941 3.55765,2.9891 6.49682,9.78595 5.76766,14.20434 -0.77223,4.67931 2.0769,7.3385 6.71218,6.33528 4.37681,-0.94728 11.42141,1.54677 14.58268,4.95235 3.16127,3.40559 5.06075,10.28177 3.89795,14.60633 -0.58219,2.1652 -0.23169,4.03479 0.66506,5.26047 0,0 9.76606,-8.20535 9.76606,-8.20535 -0.1199,-0.38647 -0.22527,-0.7987 -0.30591,-1.35083 -2.33078,-15.9582 -8.92686,-22.85102 -21.03181,-23.69399 -3.25861,-0.22692 -4.21148,-0.96358 -4.92229,-3.54357 -4.28373,-15.54819 -11.56406,-21.69888 -23.68066,-21.04426 -1.93184,0.10437 -2.92385,-0.0514 -3.64037,-0.66036 0,0 -7.48638,9.85817 -7.48638,9.85817 0,0 0,0 0,0 m 51.42098,48.53968 c 1.06589,0.85802 2.64571,1.46071 4.6325,1.2825 4.46025,-0.40007 10.90722,2.65293 13.71747,6.3535 2.81024,3.70056 4.05285,11.06337 2.36785,15.21242 -1.78452,4.39407 0.34324,7.65798 5.08566,7.6997 4.47798,0.0394 10.65713,4.09987 12.99382,8.11628 2.33668,4.01641 2.72553,11.44156 0.54694,15.35405 -1.09078,1.95889 -1.12362,3.81497 -0.55109,5.22162 0,0 11.46527,-5.59029 11.46527,-5.59029 -0.0225,-0.40401 -0.23805,-1.22029 -0.19587,-1.77668 1.21928,-16.08136 -3.39245,-24.39508 -15.01494,-27.88198 -3.12873,-0.93865 -3.64545,-1.52407 -3.70463,-4.19953 -0.35665,-16.12357 -6.49835,-24.27134 -18.46065,-26.30696 -1.90725,-0.32456 -2.84043,-0.69538 -3.40487,-1.4475 0,0 -9.47746,7.96287 -9.47746,7.96287 0,0 0,0 0,0 m 38.93359,59.17159 c 0.82582,1.09102 2.12621,1.92617 4.10388,2.18672 4.43979,0.58493 10.17644,5.32048 12.00685,9.59146 1.83041,4.27098 1.41212,11.64735 -1.22621,15.26578 -2.79415,3.8321 -1.43954,7.48476 3.15219,8.67152 4.33568,1.1206 9.50884,6.50193 10.80599,10.96389 1.29715,4.46196 -0.0923,11.45615 -3.07081,14.80014 -1.49129,1.67425 -2.02023,3.50219 -1.76794,4.99978 0,0 12.40785,-2.95792 12.40785,-2.95792 0.066,-0.39922 0.15659,-0.81496 0.33197,-1.34467 5.06886,-15.31023 2.28291,-24.39666 -8.15215,-30.58941 -2.80908,-1.66706 -3.33283,-2.74492 -2.80741,-5.36895 3.16638,-15.81363 -0.59508,-24.53543 -11.7059,-29.41297 -1.77148,-0.77767 -2.58679,-1.36385 -2.95186,-2.23045 0,0 -11.12645,5.42508 -11.12645,5.42508 0,0 0,0 0,0 m 24.15594,66.44306 c 0.56827,1.24474 1.70439,2.4918 3.56045,3.22263 4.16676,1.64072 8.55576,7.25841 9.41063,11.82578 0.85486,4.56737 -1.34651,11.70908 -4.71156,14.66379 -3.56377,3.12919 -3.13059,7.00175 1.0905,9.16385 3.98572,2.04155 7.67971,8.44738 7.96729,13.08515 0.28757,4.63777 -2.69895,11.45706 -6.40234,13.97473 -1.85421,1.26054 -2.71298,2.90636 -2.83363,4.42025 0,0 12.75455,0.15819 12.75455,0.15819 0.16142,-0.37105 0.33191,-1.20444 0.61943,-1.68264 8.31026,-13.82158 7.92525,-23.35128 -0.90313,-31.67596 -2.37657,-2.24097 -2.57623,-2.99585 -1.43042,-5.41426 6.90518,-14.57447 5.0205,-23.91128 -4.58193,-31.32977 -1.53099,-1.18278 -2.33119,-2.35693 -2.49867,-3.28225 0,0 -12.04117,2.87051 -12.04117,2.87051 0,0 0,0 0,0"
         style="fill:#000000" />
      <path
         id="path6785"
         d="m 624.5022,457.71145 c 0,0 4.92438,1.17393 4.92438,1.17393 0.43966,-3.47225 2.06308,-6.30182 5.51972,-9.32345 5.85333,-5.11673 6.3437,-7.93843 2.70883,-15.97537 -3.72305,-8.23207 -3.21935,-12.85587 2.15023,-18.86154 5.18183,-5.79576 5.24298,-8.57408 0.83372,-16.21365 -1.69863,-2.94314 -2.63668,-5.3214 -3.05237,-7.66409 0,0 -5.11862,-0.0635 -5.11862,-0.0635 0.48014,2.26602 1.57067,4.77267 3.18213,7.33863 1.94845,3.10252 3.51741,6.79313 3.42545,8.27611 -0.0919,1.48298 -1.96197,4.9623 -4.27865,7.80045 -2.48582,3.04534 -4.36131,6.52851 -4.62111,8.85345 -0.25981,2.32495 0.80056,6.13653 2.55298,9.65539 3.71961,7.469 3.34033,9.94973 -2.68865,15.71799 -3.43111,3.28273 -5.06017,6.00118 -5.53808,9.28562 0,0 4e-5,1e-5 4e-5,1e-5 m -23.04583,63.34274 c 0,0 4.5503,2.21866 4.5503,2.21866 1.18564,-3.29304 3.47281,-5.66058 7.50497,-7.85611 6.82788,-3.71785 7.92509,-6.26612 6.34475,-14.94409 -1.61863,-8.88866 -0.11808,-13.14134 6.436,-17.82584 6.32493,-4.52079 7.1598,-7.16769 4.53489,-15.58877 -1.01121,-3.2442 -1.32208,-5.75106 -1.21266,-8.12783 0,0 -4.97947,-1.18707 -4.97947,-1.18707 -0.0297,2.31615 0.40133,4.98334 1.41029,7.84043 1.21996,3.45454 1.85807,7.37743 1.44329,8.8042 -0.41478,1.42676 -3.08623,4.38721 -5.96804,6.64935 -3.0922,2.42729 -5.63412,5.17769 -6.44975,7.37032 -0.81562,2.19263 -0.62943,6.18112 0.21865,10.01963 1.8001,8.14746 0.82291,10.49607 -6.31842,14.8115 -4.06414,2.45592 -6.33278,4.7142 -7.51483,7.81561 0,0 3e-5,10e-6 3e-5,10e-6 m -36.9323,56.09166 c 0,0 3.87592,3.25651 3.87592,3.25651 1.94929,-2.90691 4.67232,-4.70488 9.11641,-5.85754 7.52546,-1.95189 9.24462,-4.24306 9.59496,-13.05679 0.35891,-9.0277 2.89238,-12.93031 10.38415,-15.89236 7.22987,-2.85855 8.53588,-5.30905 8.02317,-14.11483 -0.1975,-3.3924 0.0371,-5.82744 0.66175,-8.12327 0,0 -4.60121,-2.24348 -4.60121,-2.24348 -0.53362,2.25403 -0.63336,4.7645 -0.34452,7.78071 0.34924,3.64694 0.093,7.64865 -0.65422,8.93295 -0.74719,1.28429 -3.98331,3.55417 -7.32633,5.05296 -3.58707,1.6082 -6.83044,3.87985 -8.10438,5.84198 -1.27394,1.96212 -2.03965,5.84194 -2.04914,9.773 -0.0202,8.34393 -1.48688,10.37965 -9.46129,12.83532 -4.53824,1.39752 -7.216,3.09294 -9.1153,5.81481 0,0 3e-5,3e-5 3e-5,3e-5 m -49.00455,46.23947 c 0,0 3.06164,4.03162 3.06164,4.03162 2.54277,-2.40503 5.64137,-3.49903 10.23028,-3.64229 7.77068,-0.2426 9.88301,-2.04465 12.37726,-10.50534 2.55487,-8.66607 5.7885,-11.79993 13.74813,-13.04275 7.68138,-1.19942 9.61872,-3.19019 11.04864,-11.89421 0.55089,-3.35319 1.39945,-5.73 2.56253,-7.80564 0,0 -3.91929,-3.29294 -3.91929,-3.29294 -1.06463,2.05717 -1.87688,4.63024 -2.2562,7.63641 -0.45864,3.63481 -1.64912,7.42465 -2.65997,8.51363 -1.01085,1.08897 -4.72585,2.53459 -8.31656,3.26189 -3.85283,0.78038 -7.57174,2.22344 -9.24634,3.85702 -1.6746,1.63357 -3.14833,5.07513 -4.1185,8.88461 -2.05924,8.08585 -3.97196,9.76212 -12.29172,10.39697 -4.73479,0.3613 -7.76675,1.3654 -10.21993,3.60099 0,0 3e-5,3e-5 3e-5,3e-5 m -58.17558,33.56221 c 0,0 1.99416,4.65306 1.99416,4.65306 3.04951,-1.71765 6.23421,-1.98869 10.74339,-1.12504 7.63568,1.46247 10.17083,0.32416 14.45895,-7.38406 4.39228,-7.89533 8.39565,-10.26791 16.418,-9.53152 7.74193,0.71059 10.15855,-0.82696 13.47319,-9.00118 1.27698,-3.14908 2.67396,-5.22013 4.26645,-6.98789 0,0 -3.0959,-4.07673 -3.0959,-4.07673 -1.4924,1.77148 -2.89774,4.04233 -3.93082,6.89078 -1.24911,3.44411 -3.21932,6.8091 -4.46552,7.61822 -1.24621,0.80911 -5.14812,1.39095 -8.80777,1.22036 -3.92681,-0.18304 -7.83672,0.39743 -9.85882,1.57385 -2.0221,1.17643 -4.4471,4.31022 -6.22868,7.81441 -3.78153,7.43784 -6.09695,8.498 -14.3542,7.29823 -4.69921,-0.68278 -7.69089,-0.53747 -10.61245,1.03748 0,0 2e-5,3e-5 2e-5,3e-5 m -64.56841,19.33872 c 0,0 0.93135,4.97596 0.93135,4.97596 3.35071,-1.01121 6.61286,-0.59472 10.77958,1.33323 7.05579,3.2647 9.75266,2.61061 15.77598,-3.83333 6.1696,-6.60033 10.47148,-7.95238 18.14066,-5.48577 7.4011,2.38034 10.01844,1.45862 15.21259,-5.67059 2.00105,-2.74649 3.82537,-4.49798 5.79856,-5.82747 0,0 -2.01647,-4.70512 -2.01647,-4.70512 -1.87698,1.35733 -3.75869,3.30105 -5.45034,5.81486 -2.0454,3.03949 -4.81126,5.89806 -6.20386,6.41609 -1.39261,0.51802 -5.35995,0.14597 -8.89452,-0.81788 -3.79259,-1.03423 -7.76552,-1.40995 -9.99532,-0.70224 -2.2298,0.70771 -5.09749,3.12243 -7.67288,6.0924 -5.46641,6.30396 -7.93057,6.93527 -15.65298,3.77524 -4.39484,-1.79838 -7.55764,-2.26528 -10.75235,-1.36542 0,0 0,4e-5 0,4e-5 m -67.02823,3.88044 c 0,0 -0.3133,5.05266 -0.3133,5.05266 3.49625,-0.16144 6.45985,1.0137 10.09998,3.81155 6.16408,4.73777 8.94307,4.85764 16.2339,-0.10708 7.46786,-5.08519 12.10713,-5.40457 18.94853,-1.15069 6.60229,4.10513 9.4552,3.83228 16.0801,-1.99141 2.55224,-2.24354 4.73029,-3.46235 6.94593,-4.32949 0,0 -0.94176,-5.03164 -0.94176,-5.03164 -2.12782,0.91529 -4.40301,2.30904 -6.60254,4.39303 -2.65946,2.5198 -5.92979,4.63174 -7.40643,4.79675 -1.47664,0.16501 -5.22549,-1.06854 -8.42052,-2.86129 -3.42827,-1.92361 -7.18154,-3.16175 -9.51647,-3.01697 -2.33493,0.14478 -5.9052,1.85547 -9.06967,4.18774 -6.71678,4.95039 -9.26049,4.8599 -16.09789,0.0775 -3.89117,-2.72167 -6.62209,-3.92229 -9.93986,-3.83069 0,0 0,4e-5 0,4e-5 m -66.36737,-11.69887 c 0,0 -1.41319,4.86112 -1.41319,4.86112 3.44661,0.60884 6.17547,2.43419 9.02438,6.03451 4.82425,6.09663 7.5349,6.69295 15.81748,3.65922 8.48368,-3.10731 12.93991,-2.42672 18.67381,3.23215 5.53349,5.46101 8.29033,5.78897 16.13848,1.76265 3.02348,-1.5511 5.44075,-2.30596 7.80115,-2.60517 0,0 0.3168,-5.1092 0.3168,-5.1092 -2.28701,0.36737 -4.84048,1.26814 -7.48294,2.75083 -3.19503,1.79274 -6.95246,3.11275 -8.4291,2.94774 -1.47664,-0.16501 -4.85172,-2.26954 -7.57231,-4.72321 -2.9192,-2.63279 -6.29681,-4.74287 -8.60617,-5.1167 -2.30935,-0.37383 -5.96269,0.52388 -9.60094,2.01267 -7.72242,3.16003 -10.21509,2.64836 -15.68151,-3.65559 -3.11094,-3.58759 -5.72877,-5.4132 -8.98593,-6.05106 0,0 -10e-6,4e-5 -10e-6,4e-5 m -61.66971,-26.61604 c 0,0 -2.54572,4.37572 -2.54572,4.37572 3.19743,1.42346 5.32083,3.80568 7.31709,7.94011 3.38041,7.00109 5.81213,8.34454 14.55683,7.18911 8.95699,-1.18341 13.25541,0.6021 17.4482,7.48112 4.04627,6.63853 6.72926,7.63628 15.26847,5.42571 3.28971,-0.85158 5.7891,-0.97443 8.15768,-0.74898 0,0 1.42901,-4.91551 1.42901,-4.91551 -2.31193,-0.14286 -4.97753,0.0921 -7.88047,0.96036 -3.51,1.04981 -7.43804,1.43086 -8.84287,0.94696 -1.40482,-0.48391 -4.13218,-3.2703 -6.17758,-6.30979 -2.19471,-3.26138 -4.99583,-6.04721 -7.1461,-6.96875 -2.15026,-0.92154 -6.11529,-0.99273 -9.99058,-0.33277 -8.22553,1.40079 -10.46357,0.18703 -14.42556,-7.15628 -2.25478,-4.17909 -4.1618,-6.48119 -7.16838,-7.88705 0,0 -2e-5,4e-5 -2e-5,4e-5 m -54.05424,-40.23961 c 0,0 -3.44408,3.71024 -3.44408,3.71024 2.80702,2.09057 4.42445,4.94696 5.35645,9.44251 1.57823,7.61259 3.72903,9.36885 12.493,10.3676 8.97672,1.02306 12.64329,3.64382 15.23486,11.27167 2.50103,7.3612 4.81124,8.89934 13.63156,8.81759 3.398,-0.0315 5.89556,0.38182 8.13952,1.17281 0,0 2.5742,-4.42467 2.5742,-4.42467 -2.20893,-0.69716 -4.89469,-1.04169 -7.92141,-0.90061 -3.65965,0.17059 -7.60764,-0.33833 -8.85385,-1.14744 -1.2462,-0.80912 -3.31732,-4.20857 -4.65058,-7.62098 -1.43059,-3.66153 -3.50134,-7.06713 -5.39863,-8.43576 -1.8973,-1.36862 -5.5563,-2.21289 -9.47598,-2.51198 -8.31976,-0.63485 -10.31227,-2.21616 -12.37151,-10.30201 -1.17192,-4.60167 -2.68884,-7.40751 -5.31352,-9.439 0,0 -3e-5,3e-5 -3e-5,3e-5 m -43.15374,-51.43754 c 0,0 -4.24594,2.75674 -4.24594,2.75674 2.21144,2.71282 3.06138,5.77555 2.97879,10.36595 -0.13984,7.77321 1.45092,10.05083 9.77825,12.95946 8.52947,2.97931 11.58128,6.48946 12.22958,14.51941 0.62568,7.74924 2.59019,9.83684 11.21275,11.6959 3.3218,0.71623 5.6091,1.72777 7.62471,2.992 0,0 3.48262,-3.75175 3.48262,-3.75175 -2.00204,-1.165 -4.48685,-2.14969 -7.47055,-2.67737 -3.60764,-0.63802 -7.28865,-2.05969 -8.32618,-3.12328 -1.03753,-1.06359 -2.23079,-4.76585 -2.68943,-8.40065 -0.49211,-3.90015 -1.74659,-7.63846 -3.25148,-9.4296 -1.5049,-1.79113 -5.022,-3.62992 -8.77898,-4.78685 -7.9744,-2.45567 -9.44976,-4.52842 -9.67469,-12.86934 -0.12801,-4.74683 -0.82037,-7.63963 -2.86941,-10.25064 0,0 -4e-5,2e-5 -4e-5,2e-5 M 70.25172,489.94111 c 0,0 -4.74474,1.76496 -4.74474,1.76496 1.56695,3.12962 1.73603,6.40631 0.5451,10.84031 -2.01666,7.50836 -0.86502,10.0333 6.50891,14.87373 7.55291,4.95801 9.68928,8.93118 8.5617,16.90796 -1.08811,7.69794 0.31187,10.09377 8.22046,14.00005 3.04674,1.5049 5.1052,2.99028 6.75101,4.70851 0,0 4.29345,-2.78758 4.29345,-2.78758 -1.65688,-1.61868 -3.91425,-3.1275 -6.6791,-4.36708 -3.34302,-1.49878 -6.65309,-3.72442 -7.40027,-5.00872 -0.74719,-1.28429 -1.0784,-5.24362 -0.72916,-8.89056 0.37474,-3.91318 0.0459,-7.87918 -1.03041,-9.95632 -1.07628,-2.07713 -3.99239,-4.46938 -7.35688,-6.5025 -7.14133,-4.31543 -8.23116,-6.61576 -6.43106,-14.76323 1.02444,-4.63673 0.92169,-7.82469 -0.50897,-10.81955 0,0 -4e-5,2e-5 -4e-5,2e-5 M 54.76886,424.59025 c 0,0 -5.03106,0.56221 -5.03106,0.56221 0.7616,3.41611 0.13554,6.53635 -1.99442,10.60352 -3.60677,6.8872 -3.21827,9.63813 2.92329,15.96948 6.2906,6.4851 7.43567,10.99568 4.41439,18.46377 -2.91561,7.20704 -2.09601,9.94981 4.77147,15.48537 2.64566,2.13257 4.24155,4.06322 5.47327,6.09887 0,0 4.79782,-1.78471 4.79782,-1.78471 -1.26422,-1.94092 -3.04928,-3.93821 -5.47763,-5.75041 -2.93615,-2.19116 -5.59133,-5.11461 -6.04081,-6.53082 -0.44949,-1.41621 0.14693,-5.26306 1.36689,-8.7176 1.30901,-3.70673 1.86759,-7.61406 1.3251,-9.8897 -0.54249,-2.27565 -2.85729,-5.49845 -5.69772,-8.21604 -6.02899,-5.76827 -6.40611,-8.28505 -2.87119,-15.84321 2.01173,-4.30136 2.70268,-7.1984 2.04064,-10.45073 0,0 -4e-5,0 -4e-5,0 m 0,-67.37504 c 0,0 -5.03106,-0.56221 -5.03106,-0.56221 -0.0112,3.49996 -1.32249,6.50167 -4.38258,9.9243 -5.18184,5.79577 -5.2679,8.57254 -0.85864,16.21211 4.51624,7.82507 4.65289,12.32769 0.0661,18.95051 -4.4264,6.39133 -4.25566,9.16286 1.06331,16.19942 2.04909,2.71083 3.21814,4.96108 3.91968,7.23458 0,0 5.08735,-0.56849 5.08735,-0.56849 -0.75604,-2.18947 -2.09231,-4.54894 -4.00833,-6.89624 -2.31668,-2.83815 -4.27348,-6.31101 -4.36543,-7.79399 -0.092,-1.48298 1.38994,-5.16927 3.33838,-8.2718 2.0907,-3.32901 3.57734,-7.01723 3.54833,-9.35647 -0.029,-2.33923 -1.56985,-5.77956 -3.66054,-9.10857 -4.43762,-7.06605 -4.39817,-9.6111 0.87812,-16.07502 3.00274,-3.67863 4.33314,-6.56989 4.40534,-9.88813 0,0 -4e-5,0 -4e-5,0 m 15.48286,-65.35086 c 0,0 -4.74474,-1.76496 -4.74474,-1.76496 -0.8593,3.39285 -2.79456,5.90819 -6.52971,8.5779 -6.32493,4.52079 -7.18348,7.1608 -4.55858,15.58188 2.68857,8.62553 1.59325,12.99971 -4.34036,18.44881 -5.72615,5.25866 -6.31987,7.97437 -2.68501,16.01131 1.4003,3.09621 1.96997,5.53996 2.15236,7.91225 0,0 5.08735,0.56849 5.08735,0.56849 -0.25409,-2.30236 -0.96273,-4.88973 -2.31346,-7.60201 -1.63319,-3.27946 -2.70137,-7.08782 -2.46394,-8.55456 0.23743,-1.46674 2.57083,-4.72313 5.15514,-7.31996 2.77297,-2.7864 5.04396,-5.80651 5.58646,-8.08216 0.54249,-2.27564 -0.0877,-6.20097 -1.3967,-9.9077 -2.77846,-7.86776 -2.01492,-10.29461 4.54845,-15.44667 3.73522,-2.93205 5.62839,-5.22082 6.50278,-8.4226 0,0 -4e-5,-2e-5 -4e-5,-2e-5 m 30.25052,-60.23351 c 0,0 -4.24594,-2.75674 -4.24594,-2.75674 -1.57818,3.12397 -4.10082,5.21742 -8.37036,6.9055 -7.22987,2.85855 -8.55722,5.29664 -8.04451,14.10242 0.5251,9.01956 -1.37116,13.11346 -8.44639,16.96593 -6.82788,3.71784 -7.90245,6.27581 -6.32212,14.95379 0.60879,3.34317 0.65097,5.8845 0.25288,8.23025 0,0 4.79782,1.78471 4.79782,1.78471 0.31158,-2.29528 0.16978,-5.01072 -0.4839,-7.96938 -0.79038,-3.57735 -0.98457,-7.56478 -0.39927,-8.93048 0.58529,-1.36569 3.55947,-3.99593 6.69505,-5.89072 3.36449,-2.03312 6.34556,-4.66572 7.37084,-6.7685 1.02528,-2.10277 1.19381,-5.87639 0.81907,-9.78956 -0.7954,-8.30595 0.38812,-10.55999 8.00189,-13.97349 4.33301,-1.94264 6.82372,-3.92951 8.37498,-6.86371 0,0 -4e-5,-2e-5 -4e-5,-2e-5 m 43.15374,-51.43754 c 0,0 -3.44408,-3.71024 -3.44408,-3.71024 -2.29336,2.64392 -5.14301,4.02603 -9.67919,4.73433 -7.68138,1.19943 -9.63705,3.17318 -11.06697,11.8772 -1.46469,8.91531 -4.38245,12.53809 -12.18051,14.56063 -7.52545,1.95188 -9.21469,4.26521 -9.56503,13.07894 -0.13499,3.39546 -0.72622,5.8321 -1.62604,8.03467 0,0 4.29345,2.78758 4.29345,2.78758 0.80439,-2.17217 1.336,-4.79992 1.34332,-7.82991 0.009,-3.66362 0.76569,-7.54297 1.63495,-8.748 0.86925,-1.20503 4.41999,-3.06676 7.89375,-4.23085 3.72736,-1.24906 7.11917,-2.92151 8.62407,-4.71265 1.50489,-1.79113 2.70289,-5.5781 3.195,-9.47825 1.04455,-8.2783 2.81698,-10.10207 10.99485,-11.75849 4.65405,-0.94268 7.36155,-2.13845 9.58246,-4.60493 0,0 -3e-5,-3e-5 -3e-5,-3e-5 m 54.05424,-40.23961 c 0,0 -2.54572,-4.37572 -2.54572,-4.37572 -2.81776,2.07608 -6.00394,2.82261 -10.57587,2.40296 -7.74192,-0.71059 -10.17915,0.79607 -13.49379,8.97029 -3.39517,8.37263 -7.13181,11.14351 -15.18397,11.39485 -7.77068,0.2426 -9.86697,2.06372 -12.36123,10.52442 -0.96092,3.25944 -2.05875,5.55478 -3.46926,7.47089 0,0 3.48262,3.75175 3.48262,3.75175 1.31054,-1.90994 2.39641,-4.40438 3.14421,-7.34066 0.90416,-3.5503 2.51713,-7.20669 3.65473,-8.16249 1.1376,-0.9558 4.96795,-1.97482 8.62095,-2.25357 3.91969,-0.29909 7.75622,-1.31645 9.6193,-2.7313 1.86309,-1.41484 3.91263,-4.78452 5.25292,-8.48006 2.84486,-7.84399 4.95899,-9.1962 13.29389,-8.80768 4.74341,0.22111 7.85312,-0.44478 10.56124,-2.36364 0,0 -2e-5,-4e-5 -2e-5,-4e-5 m 61.66971,-26.61604 c 0,0 -1.41319,-4.86112 -1.41319,-4.86112 -3.23585,1.33384 -6.4048,1.29382 -10.77545,-0.11188 -7.40111,-2.38034 -10.02704,-1.48171 -15.22118,5.6475 -5.3203,7.30224 -9.47642,9.05459 -17.38868,7.5391 -7.63567,-1.46246 -10.15948,-0.30226 -14.4476,7.40596 -1.65201,2.96956 -3.26986,4.89388 -5.06654,6.45367 0,0 2.5742,4.42467 2.5742,4.42467 1.6978,-1.57571 3.34899,-3.69768 4.72221,-6.39864 1.66038,-3.26578 4.07725,-6.40317 5.3965,-7.08675 1.31925,-0.68358 5.3208,-0.76016 8.94636,-0.23337 3.89022,0.56524 7.6636,0.57138 9.81386,-0.35016 2.15027,-0.92154 4.92322,-3.77537 7.11794,-7.03675 4.65842,-6.92247 7.05695,-7.77031 15.10696,-5.57512 4.58127,1.24929 7.54314,1.3907 10.63462,0.18293 0,0 -10e-6,-4e-5 -10e-6,-4e-5 m 66.36737,-11.69887 c 0,0 -0.3133,-5.05266 -0.3133,-5.05266 -3.44952,0.59213 -6.63147,-0.17321 -10.53039,-2.59747 -6.60228,-4.10514 -9.34973,-3.6931 -16.11576,1.966 -6.93033,5.79644 -11.34008,6.74343 -18.65142,3.36043 -7.05579,-3.2647 -9.74693,-2.58656 -15.77025,3.85737 -2.32049,2.48249 -4.33312,4.03892 -6.45341,5.11845 0,0 1.42901,4.91551 1.42901,4.91551 2.02818,-1.11887 4.12091,-2.85904 6.10598,-5.14824 2.40017,-2.76791 5.48306,-5.30898 6.92839,-5.65353 1.44533,-0.34455 5.32814,0.46676 8.71886,1.85426 3.63825,1.48878 7.52631,2.30436 9.82579,1.87397 2.29949,-0.43039 5.42393,-2.56412 8.34313,-5.19692 6.19619,-5.58826 8.70818,-6.00625 15.9849,-1.92326 4.1412,2.32363 7.21744,3.1269 10.49847,2.62613 0,0 0,-4e-5 0,-4e-5 m 67.02823,3.88044 c 0,0 0.93135,-4.97596 0.93135,-4.97596 -3.48962,-0.26908 -6.30427,-1.69921 -9.57202,-4.92418 -5.5335,-5.46102 -8.28758,-5.8137 -16.13572,-1.78739 -8.0387,4.12401 -12.53392,3.84604 -18.92124,-1.06339 -6.16408,-4.73776 -8.94276,-4.8326 -16.23359,0.13212 -2.80878,1.91262 -5.11692,2.90423 -7.42227,3.49275 0,0 0.3168,5.1092 0.3168,5.1092 2.22411,-0.6471 4.64918,-1.80031 7.0883,-3.59798 2.94917,-2.17359 6.51588,-3.8918 8.00159,-3.91022 1.48572,-0.0184 5.09386,1.70785 8.09599,3.80769 3.22129,2.25314 6.58247,3.93991 8.9174,4.0847 2.33493,0.14478 6.09373,-1.1677 9.522,-3.09132 7.27672,-4.08299 9.80246,-3.78807 15.99865,1.80019 3.52626,3.18029 6.10885,4.60735 9.41276,4.92383 0,0 0,-4e-5 0,-4e-5 m 64.56841,19.33872 c 0,0 1.99416,-4.65306 1.99416,-4.65306 -3.34693,-1.02368 -5.84944,-3.12935 -8.23892,-7.04968 -4.04627,-6.63853 -6.7168,-7.67107 -15.25601,-5.4605 -8.74653,2.26416 -13.20671,0.93573 -18.20567,-5.38177 -4.82425,-6.09663 -7.54063,-6.66892 -15.82321,-3.63519 -3.19085,1.16871 -5.69257,1.66839 -8.07185,1.6755 0,0 -0.94176,5.03164 -0.94176,5.03164 2.31481,-0.0838 4.97052,-0.71137 7.77483,-1.85889 3.39072,-1.3875 7.2925,-2.28296 8.73783,-1.93841 1.44533,0.34456 4.54924,2.80205 6.94941,5.56996 2.57538,2.96998 5.68316,5.43399 7.92958,6.08705 2.24641,0.65307 6.17839,0.28069 9.94462,-0.84576 7.99405,-2.39096 10.34957,-1.52486 15.00799,5.39761 2.65111,3.9396 5.04363,6.0321 8.19898,7.06153 0,0 2e-5,-3e-5 2e-5,-3e-5 m 58.17558,33.56221 c 0,0 3.06164,-4.03162 3.06164,-4.03162 -2.99939,-1.80374 -4.86682,-4.35484 -6.34377,-8.70193 -2.50103,-7.3612 -4.79777,-8.92009 -13.61809,-8.83834 -9.03444,0.0837 -12.92962,-2.18804 -16.43243,-9.44275 -3.3804,-7.00109 -5.82292,-8.32239 -14.56762,-7.16696 -3.36887,0.44509 -5.88145,0.30061 -8.205,-0.21136 0,0 -2.01647,4.70512 -2.01647,4.70512 2.27736,0.4231 4.9687,0.47656 7.9557,-0.0321 3.61163,-0.61505 7.57445,-0.55261 8.90998,0.0986 1.33554,0.65119 3.78677,3.81129 5.52638,7.03556 1.86661,3.45965 4.11833,6.47947 6.14043,7.6559 2.0221,1.17642 5.96991,1.69354 9.89672,1.5105 8.3349,-0.38852 10.45445,1.01736 13.49096,8.78917 1.72809,4.42295 3.38942,6.86735 6.20154,8.63028 0,0 3e-5,-3e-5 3e-5,-3e-5 m 49.00455,46.23947 c 0,0 3.87592,-3.25651 3.87592,-3.25651 -2.52736,-2.42122 -3.82222,-5.41904 -4.1917,-9.99529 -0.62568,-7.74925 -2.56301,-9.86272 -11.18556,-11.72178 -8.83187,-1.90426 -12.21739,-5.09147 -13.85273,-12.97982 -1.57823,-7.61259 -3.74506,-9.34977 -12.50903,-10.34851 -3.37629,-0.38479 -5.83249,-1.06371 -7.96289,-2.12314 0,0 -3.0959,4.07673 -3.0959,4.07673 2.10711,0.96202 4.75787,1.59523 7.77909,1.82577 3.653,0.27875 7.53842,1.23057 8.67602,2.18637 1.1376,0.9558 2.80737,4.54626 3.71153,8.09656 0.97017,3.80948 2.63885,7.40551 4.35342,8.99709 1.71458,1.59157 5.3927,3.02148 9.26371,3.70607 8.21644,1.4531 9.94387,3.2715 10.98842,11.54981 0.59445,4.71119 1.79596,7.64659 4.14967,9.98668 0,0 3e-5,-3e-5 3e-5,-3e-5 m 36.9323,56.09166 c 0,0 4.5503,-2.21866 4.5503,-2.21866 -1.86429,-2.96214 -2.41183,-6.06666 -1.76925,-10.61262 1.08811,-7.69794 -0.29053,-10.10618 -8.19912,-14.01246 -8.10054,-4.00117 -10.59693,-7.75421 -10.45197,-15.80898 0.13984,-7.77321 -1.47071,-10.0358 -9.79804,-12.94444 -3.20807,-1.12057 -5.39623,-2.37188 -7.24029,-3.87536 0,0 -3.91929,3.29294 -3.91929,3.29294 1.84284,1.40333 4.23073,2.65287 7.12654,3.54462 3.50137,1.07822 7.02224,2.90999 7.92085,4.09329 0.89861,1.18329 1.67487,5.09872 1.77363,8.76102 0.10597,3.92964 0.78243,7.61843 2.05637,9.58056 1.27394,1.96212 4.57977,4.19429 8.16684,5.80249 7.61377,3.41351 8.90349,5.60575 8.10809,13.9117 -0.45266,4.72693 -0.0402,7.64462 1.67531,10.48591 0,0 3e-5,-10e-6 3e-5,-10e-6 m 23.04583,63.34274 c 0,0 4.92438,-1.17393 4.92438,-1.17393 -1.17411,-3.29717 -0.98347,-6.55954 0.73833,-10.8156 2.91562,-7.20704 2.1314,-9.96057 -4.73608,-15.49612 -7.03416,-5.67 -8.64135,-10.03788 -6.55159,-17.8182 2.01665,-7.50836 0.84238,-10.0236 -6.53156,-14.86404 -2.84076,-1.86478 -4.74114,-3.57221 -6.16525,-5.47823 0,0 -4.60121,2.24348 -4.60121,2.24348 1.44723,1.80857 3.54238,3.56389 6.13566,5.131 3.13559,1.89479 6.18832,4.49023 6.77361,5.85592 0.5853,1.3657 0.47048,5.32025 -0.3199,8.8976 -0.84809,3.83851 -0.96561,7.8005 -0.14999,9.99313 0.81563,2.19263 3.46627,5.12447 6.61677,7.47558 6.68712,4.99039 7.417,7.39142 4.63854,15.25918 -1.58123,4.47755 -1.82699,7.64343 -0.77175,10.79024 0,0 4e-5,-10e-6 4e-5,-10e-6 m 7.82922,66.68807 c 0,0 5.06199,0.0628 5.06199,0.0628 -0.33433,-3.48397 0.56557,-6.50029 3.17956,-10.27464 4.4264,-6.39134 4.28058,-9.16441 -1.03839,-16.20097 -5.44805,-7.20742 -5.97925,-11.68168 -2.24179,-18.81833 3.60678,-6.8872 3.19392,-9.63357 -2.94763,-15.96492 -2.366,-2.43915 -3.75593,-4.54023 -4.73054,-6.71075 0,0 -4.97947,1.18707 -4.97947,1.18707 1.0184,2.08044 2.58788,4.27027 4.77723,6.36495 2.64718,2.53271 4.9679,5.74936 5.24126,7.20983 0.27335,1.46047 -0.79362,5.31022 -2.34572,8.62882 -1.66541,3.56087 -2.72703,7.16243 -2.46722,9.48738 0.2598,2.32494 2.20936,5.80076 4.69517,8.8461 5.27629,6.46392 5.43975,9.00129 1.00213,16.06733 -2.52545,4.0213 -3.46235,6.80619 -3.20661,10.11535 0,0 3e-5,0 3e-5,0"
         style="fill:#000000" />
    </g>
  </g>
</svg>
