<svg xmlns="http://www.w3.org/2000/svg" version="1.1" xmlns:xlink="http://www.w3.org/1999/xlink" xmlns:svgjs="http://svgjs.dev/svgjs" width="2000" height="368" viewBox="0 0 2000 368"><g transform="matrix(1,0,0,1,-1.2121212121212466,-0.1890000919331385)"><svg viewBox="0 0 396 73" data-background-color="#ffffff" preserveAspectRatio="xMidYMid meet" height="368" width="2000" xmlns="http://www.w3.org/2000/svg" xmlns:xlink="http://www.w3.org/1999/xlink"><g id="tight-bounds" transform="matrix(1,0,0,1,0.2400000000000091,0.03749186606282251)"><svg viewBox="0 0 395.52 72.92501626787435" height="72.92501626787435" width="395.52"><g><svg viewBox="0 0 474.7012691459332 87.52426621876968" height="72.92501626787435" width="395.52"><g><svg viewBox="0 0 395.52 87.52426621876968" height="87.52426621876968" width="395.52"><g id="textblocktransform"><svg viewBox="0 0 395.52 87.52426621876968" height="87.52426621876968" width="395.52" id="textblock"><g><svg viewBox="0 0 395.52 87.52426621876968" height="87.52426621876968" width="395.52"><g transform="matrix(1,0,0,1,0,0)"><svg width="395.52" viewBox="5.050000000000001 -44.6 239.13 53.7" height="87.52426621876968" data-palette-color="#ffffff"><path d="M24.25-33.65L24.25-33.65Q22.05-30.7 20.25-27.15 18.45-23.6 17.18-19.88 15.9-16.15 15.23-12.53 14.55-8.9 14.55-5.75L14.55-5.75Q14.55-1.85 15.7-0.1 16.85 1.65 19.65 1.65L19.65 1.65Q22.9 1.65 25.35-0.63 27.8-2.9 29.95-6.9L29.95-6.9Q31.35-9.5 32.35-12.6 33.35-15.7 33.98-18.98 34.6-22.25 34.9-25.58 35.2-28.9 35.2-31.95L35.2-31.95Q35.2-33.9 35.15-34.8 35.1-35.7 35-36.25L35-36.25Q35.15-36.25 35.75-36.15 36.35-36.05 37.13-35.9 37.9-35.75 38.68-35.5 39.45-35.25 40-34.95L40-34.95Q39.75-31.15 39.08-27.1 38.4-23.05 37.3-19.1 36.2-15.15 34.75-11.5 33.3-7.85 31.5-4.95L31.5-4.95Q28.85-0.65 25.55 1.78 22.25 4.2 17.75 4.2L17.75 4.2Q13.15 4.2 10.6 1.53 8.05-1.15 8.05-6.6L8.05-6.6Q8.05-9.75 8.75-13.73 9.45-17.7 10.63-21.83 11.8-25.95 13.35-29.88 14.9-33.8 16.6-36.9L16.6-36.9Q17.45-36.85 18.6-36.55 19.75-36.25 20.85-35.77 21.95-35.3 22.88-34.73 23.8-34.15 24.25-33.65ZM56.05-19.9L56.05-19.9Q56-18.95 55.72-17.93 55.45-16.9 55.05-16.07 54.65-15.25 54.2-14.7 53.75-14.15 53.35-14.15L53.35-14.15Q52.8-14.2 52.7-14.9L52.7-14.9Q52.7-15.05 52.82-15.38 52.95-15.7 53.1-16.1 53.25-16.5 53.37-16.9 53.5-17.3 53.5-17.6L53.5-17.6Q53.5-18.3 53.17-18.78 52.85-19.25 52.3-19.25L52.3-19.25Q50.3-19.25 49.25-16.75 48.2-14.25 48.2-9.4L48.2-9.4Q48.2-8.9 48.25-8.8L48.25-8.8Q49.3-8.85 50.12-8.88 50.95-8.9 51.75-8.9L51.75-8.9Q51.8-8.8 51.8-8.5L51.8-8.5Q51.8-8.05 51.6-7.85L51.6-7.85Q50.45-7.6 49.77-7.43 49.1-7.25 48.75-7.1 48.4-6.95 48.32-6.78 48.25-6.6 48.25-6.3L48.25-6.3Q48.25-5.9 48.27-5.5 48.3-5.1 48.3-4.5L48.3-4.5Q48.3-0.3 46.02 2.25 43.75 4.8 39.7 5.2L39.7 5.2Q39 5.15 38.25 4.8 37.5 4.45 36.82 3.9 36.15 3.35 35.65 2.68 35.15 2 34.95 1.3L34.95 1.3Q34.95-0.6 35.75-2.33 36.55-4.05 37.92-5.38 39.3-6.7 41.17-7.53 43.05-8.35 45.25-8.5L45.25-8.5Q45.25-9.75 45-10.95 44.75-12.15 44.47-13.28 44.2-14.4 43.95-15.48 43.7-16.55 43.7-17.6L43.7-17.6Q43.7-18.95 44.25-20.28 44.8-21.6 45.7-22.73 46.6-23.85 47.8-24.65 49-25.45 50.3-25.75L50.3-25.75Q50.85-25.6 51.77-24.88 52.7-24.15 53.6-23.25 54.5-22.35 55.2-21.43 55.9-20.5 56.05-19.9ZM39.55 2.9L39.55 2.9Q40.75 2.4 41.82 1.45 42.9 0.5 43.7-0.7 44.5-1.9 44.97-3.25 45.45-4.6 45.45-5.9L45.45-5.9Q44.45-5.75 43.25-4.98 42.05-4.2 41-3.13 39.95-2.05 39.25-0.9 38.55 0.25 38.55 1.1L38.55 1.1Q38.55 2.2 39.55 2.9ZM85-15.35L85-15.35Q84.2-15.3 83.05-14.33 81.9-13.35 80.57-11.83 79.25-10.3 77.82-8.45 76.4-6.6 75.07-4.78 73.75-2.95 72.59-1.35 71.45 0.25 70.65 1.2L70.65 1.2Q69.55 0.75 68.75-0.13 67.95-1 67.59-2.3L67.59-2.3Q67.84-3.85 68.3-5.53 68.75-7.2 69.47-9 70.2-10.8 71.27-12.78 72.34-14.75 73.9-16.95L73.9-16.95Q73.15-16.9 71.84-15.88 70.55-14.85 69.05-13.23 67.55-11.6 65.95-9.58 64.34-7.55 62.95-5.6L62.95-5.6Q61.1-3 59.87-1.05 58.65 0.9 58.1 1.25L58.1 1.25Q56.8 0.3 56.3-0.8 55.8-1.9 55.55-3.25L55.55-3.25Q55.6-4.45 55.92-6.25 56.25-8.05 56.85-9.95L56.85-9.95Q58-13.6 59.82-17.2 61.65-20.8 63.35-23.8L63.35-23.8Q64.75-23.5 65.87-22.85 67-22.2 68.25-20.95L68.25-20.95Q67.75-19.4 66.7-17.68 65.65-15.95 64.5-14.05 63.35-12.15 62.4-10.15 61.45-8.15 61.15-6.1L61.15-6.1Q62.55-8.1 64.47-10.7 66.4-13.3 68.42-15.6 70.45-17.9 72.45-19.5 74.45-21.1 76.05-21.1L76.05-21.1Q76.65-21.1 77.34-20.9 78.05-20.7 78.65-20.4 79.25-20.1 79.65-19.83 80.05-19.55 80.09-19.4L80.09-19.4Q79.84-18.4 78.92-16.68 78-14.95 76.95-13.05 75.9-11.15 75-9.38 74.09-7.6 73.95-6.55L73.95-6.55Q76.4-9.9 78.55-12.63 80.7-15.35 82.59-17.3 84.5-19.25 86.12-20.3 87.75-21.35 89.2-21.35L89.2-21.35Q90.2-21.35 91.07-20.83 91.95-20.3 92.3-19.3L92.3-19.3Q91.84-17.8 90.82-15.7 89.8-13.6 88.75-11.28 87.7-8.95 86.87-6.7 86.05-4.45 86.05-2.65L86.05-2.65Q86.05-1.6 86.34-1.28 86.65-0.95 87.2-0.95L87.2-0.95Q87.8-0.95 88.32-1.18 88.84-1.4 89.09-1.4L89.09-1.4Q89.4-1.2 89.45-0.9 89.5-0.6 89.5-0.35L89.5-0.35Q88.5 0.45 87.45 0.98 86.4 1.5 85.09 1.5L85.09 1.5Q83.9 1.5 83.12 1.1 82.34 0.7 81.84 0 81.34-0.7 81.15-1.6 80.95-2.5 80.95-3.55L80.95-3.55Q80.95-5.25 81.4-6.93 81.84-8.6 82.47-10.13 83.09-11.65 83.8-12.98 84.5-14.3 85-15.35ZM111.59-20.2L111.59-20.2Q112.09-20.2 112.77-20.03 113.44-19.85 113.99-19.58 114.54-19.3 114.92-19 115.29-18.7 115.29-18.45L115.29-18.45Q114.29-16.35 113.44-14.23 112.59-12.1 111.99-10.15 111.39-8.2 111.07-6.5 110.74-4.8 110.74-3.55L110.74-3.55Q110.74-2.15 111.04-1.23 111.34-0.3 112.04 0.1L112.04 0.1Q111.44 0.5 110.49 0.75 109.54 1 108.79 1L108.79 1Q106.09 1 106.09-2.7L106.09-2.7Q106.09-5.55 107.99-10.5L107.99-10.5Q106.99-8.2 105.69-6.18 104.39-4.15 103.04-2.6 101.69-1.05 100.32-0.08 98.94 0.9 97.79 1.1L97.79 1.1Q95.94 1 94.79-0.68 93.64-2.35 93.64-4.95L93.64-4.95Q93.64-7.75 94.84-10.85 96.04-13.95 97.92-16.6 99.79-19.25 101.99-21.03 104.19-22.8 106.24-22.9L106.24-22.9Q106.74-22.75 107.37-22.3 107.99-21.85 108.57-21.25 109.14-20.65 109.54-20.03 109.94-19.4 109.99-18.95L109.99-18.95Q107.99-18.65 105.87-17 103.74-15.35 102.02-13.03 100.29-10.7 99.19-8.05 98.09-5.4 98.09-3.1L98.09-3.1Q98.09-2.15 98.79-1.9L98.79-1.9Q100.24-2.2 102.14-4.38 104.04-6.55 106.74-11.1L106.74-11.1Q107.24-12 107.87-13.1 108.49-14.2 109.14-15.4 109.79-16.6 110.42-17.82 111.04-19.05 111.59-20.2ZM125.94-24.25L125.94-24.25Q127.24-23.85 128.39-22.48 129.54-21.1 130.09-19.45L130.09-19.45Q129.54-18.1 128.39-16.2 127.24-14.3 126.09-12.33 124.94-10.35 124.02-8.58 123.09-6.8 122.94-5.65L122.94-5.65Q123.74-6.5 124.72-7.63 125.69-8.75 126.62-9.88 127.54-11 128.34-11.93 129.14-12.85 129.59-13.3L129.59-13.3Q130.54-14.3 131.84-15.63 133.14-16.95 134.56-18.13 135.99-19.3 137.44-20.13 138.89-20.95 140.09-20.95L140.09-20.95Q141.39-20.95 142.27-20.08 143.14-19.2 143.64-18.25L143.64-18.25Q143.64-18.15 143.27-17.98 142.89-17.8 142.19-17L142.19-17Q141.49-16.1 140.62-14.53 139.74-12.95 138.92-11.13 138.09-9.3 137.54-7.4 136.99-5.5 136.99-3.95L136.99-3.95Q136.99-2.7 137.31-2.35 137.64-2 138.24-2L138.24-2Q138.79-2 139.39-2.25 139.99-2.5 140.34-2.5L140.34-2.5Q140.54-2.4 140.67-2.08 140.79-1.75 140.79-1.5L140.79-1.5Q140.39-1.15 139.84-0.8 139.29-0.45 138.69-0.15 138.09 0.15 137.52 0.35 136.94 0.55 136.49 0.55L136.49 0.55Q135.04 0.55 134.12 0.13 133.19-0.3 132.67-1 132.14-1.7 131.94-2.68 131.74-3.65 131.74-4.75L131.74-4.75Q131.74-5.35 131.84-6.1 131.94-6.85 132.24-7.88 132.54-8.9 133.09-10.33 133.64-11.75 134.49-13.75L134.49-13.75Q134.39-13.75 133.14-13.05 131.89-12.35 130.44-10.9L130.44-10.9Q128.09-8.65 126.22-6.45 124.34-4.25 122.39-1.55L122.39-1.55Q121.29 0 120.47 1.07 119.64 2.15 119.04 2.5L119.04 2.5Q117.99 1.9 117.49 0.83 116.99-0.25 116.74-1.4L116.74-1.4Q116.74-2.35 117.02-3.8 117.29-5.25 117.77-7.03 118.24-8.8 118.94-10.75 119.64-12.7 120.49-14.65L120.49-14.65Q122.39-19.05 123.97-21.55 125.54-24.05 125.94-24.25ZM172.84 3.2L172.84 3.2Q171.69 3.8 170.39 3.8L170.39 3.8Q168.79 3.6 167.31 3 165.84 2.4 165.14 1.55L165.14 1.55Q164.74-0.9 164.49-2.95 164.24-5 164.09-6.83 163.94-8.65 163.89-10.33 163.84-12 163.84-13.7L163.84-13.7Q163.84-15.95 163.89-18.45 163.94-20.95 164.01-23.78 164.09-26.6 164.14-29.83 164.19-33.05 164.19-36.85L164.19-36.85Q164.84-36.85 166.14-36.48 167.44-36.1 168.71-35.6 169.99-35.1 170.99-34.58 171.99-34.05 172.09-33.7L172.09-33.7Q171.59-32.3 171.21-30.05 170.84-27.8 170.61-25.05 170.39-22.3 170.29-19.25 170.19-16.2 170.19-13.2L170.19-13.2Q170.19-10.95 170.24-9.18 170.29-7.4 170.36-5.98 170.44-4.55 170.59-3.33 170.74-2.1 170.94-0.9L170.94-0.9Q172.34-5.15 174.01-9.4 175.69-13.65 177.46-17.57 179.24-21.5 180.99-24.9 182.74-28.3 184.31-30.83 185.89-33.35 187.14-34.83 188.39-36.3 189.19-36.4L189.19-36.4Q189.74-36.3 190.36-35.98 190.99-35.65 191.54-35.2 192.09-34.75 192.54-34.2 192.99-33.65 193.24-33.1L193.24-33.1Q191.39-32.45 189.26-30.05 187.14-27.65 184.99-24.28 182.84-20.9 180.81-16.93 178.79-12.95 177.16-9.15 175.54-5.35 174.39-2.05 173.24 1.25 172.84 3.2ZM186.38-3.35L186.38-3.35Q186.38-3.8 186.46-4.48 186.53-5.15 186.73-6.28 186.93-7.4 187.26-9 187.58-10.6 188.08-12.85L188.08-12.85Q188.18-13.35 188.53-14.45 188.88-15.55 189.46-16.78 190.03-18 190.86-19.15 191.68-20.3 192.83-20.85L192.83-20.85Q193.68-20.65 195.08-19.83 196.48-19 197.48-17.55L197.48-17.55Q196.33-16.25 195.56-14.95 194.78-13.65 194.16-12.25 193.53-10.85 193.01-9.35 192.48-7.85 191.83-6.2L191.83-6.2Q191.28-4.8 190.83-3.33 190.38-1.85 190.33-0.75L190.33-0.75Q190.33 0.15 190.31 0.53 190.28 0.9 190.03 0.9L190.03 0.9Q189.83 0.9 189.23 0.65 188.63 0.4 188.01-0.13 187.38-0.65 186.88-1.45 186.38-2.25 186.38-3.35ZM195.93-25.05L195.93-25.05Q195.93-25.35 196.08-25.95L196.08-25.95Q195.83-26.2 195.66-26.7 195.48-27.2 195.48-27.6L195.48-27.6Q195.48-28.05 195.61-28.83 195.73-29.6 195.93-30.5 196.13-31.4 196.43-32.38 196.73-33.35 197.03-34.15L197.03-34.15Q197.63-34.15 198.51-33.83 199.38-33.5 200.28-32.98 201.18-32.45 201.93-31.83 202.68-31.2 203.08-30.65L203.08-30.65Q202.53-30.1 201.63-29.13 200.73-28.15 199.88-27.08 199.03-26 198.33-25.05 197.63-24.1 197.43-23.7L197.43-23.7Q196.83-23.8 196.38-24.23 195.93-24.65 195.93-25.05ZM196.93-1L196.93-1Q197.18-2.45 197.81-4.83 198.43-7.2 199.28-9.88 200.13-12.55 201.08-15.25 202.03-17.95 202.93-20.1L202.93-20.1Q203.58-21.65 204.08-22.53 204.58-23.4 205.18-24L205.18-24Q205.88-23.9 206.63-23.65 207.38-23.4 208.08-23.05 208.78-22.7 209.33-22.33 209.88-21.95 210.18-21.6L210.18-21.6Q208.83-20 207.81-17.95 206.78-15.9 205.73-12.7L205.73-12.7Q208.43-15.1 210.51-17.3 212.58-19.5 214.38-22.2L214.38-22.2Q214.68-22.45 215.43-22.45L215.43-22.45Q216.13-22.45 216.78-22.23 217.43-22 217.68-21.6L217.68-21.6Q216.78-19.2 216.78-16.85L216.78-16.85Q216.78-14.65 217.43-13.55L217.43-13.55Q217.38-13.25 216.76-12.4 216.13-11.55 215.38-10.8L215.38-10.8Q214.03-11.5 212.98-12.73 211.93-13.95 211.43-15.4L211.43-15.4Q209.08-13.75 207.43-12.18 205.78-10.6 204.61-8.68 203.43-6.75 202.61-4.25 201.78-1.75 201.03 1.7L201.03 1.7Q200.58 1.65 199.96 1.38 199.33 1.1 198.71 0.7 198.08 0.3 197.58-0.15 197.08-0.6 196.93-1ZM218.38-4.7L218.38-4.7Q218.38-6.5 219.3-9.7 220.23-12.9 221.73-16.7 223.23-20.5 225.13-24.55 227.03-28.6 228.95-32.1 230.88-35.6 232.65-38.15 234.43-40.7 235.68-41.6L235.68-41.6Q236.38-41.55 237.2-41 238.03-40.45 238.73-39.68 239.43-38.9 239.9-38.05 240.38-37.2 240.38-36.5L240.38-36.5Q238.13-34.7 235.8-31.88 233.48-29.05 231.38-25.68 229.28-22.3 227.5-18.53 225.73-14.75 224.53-11.1L224.53-11.1Q226.13-13.85 227.88-16.1 229.63-18.35 231.38-19.95 233.13-21.55 234.8-22.43 236.48-23.3 237.98-23.35L237.98-23.35Q240.18-21.75 240.18-19.1L240.18-19.1Q240.18-17.5 239.53-15.88 238.88-14.25 237.8-12.88 236.73-11.5 235.35-10.53 233.98-9.55 232.48-9.25L232.48-9.25Q232.98-7.5 233.75-5.7 234.53-3.9 235.6-2.2 236.68-0.5 238.05 0.95 239.43 2.4 241.18 3.4L241.18 3.4Q240.93 3.9 240.43 4.4 239.93 4.9 239.23 5.28 238.53 5.65 237.7 5.88 236.88 6.1 236.08 6.1L236.08 6.1Q234.73 6.1 233.55 4.75 232.38 3.4 231.43 0.85L231.43 0.85Q230.68-1.2 229.98-4.05 229.28-6.9 228.73-10L228.73-10Q229.43-10.45 230.48-11.33 231.53-12.2 232.68-13.35L232.68-13.35Q237.08-17.6 237.08-20.7L237.08-20.7Q237.08-21.1 236.53-21.1L236.53-21.1Q235.53-21.05 234.18-20.15 232.83-19.25 231.3-17.65 229.78-16.05 228.2-13.9 226.63-11.75 225.18-9.25L225.18-9.25Q224.58-8.25 224.08-6.95 223.58-5.65 223.2-4.28 222.83-2.9 222.63-1.55 222.43-0.2 222.43 0.95L222.43 0.95Q222.43 1.65 222.58 2.1L222.58 2.1Q221.03 1.95 220.68 1.3L220.68 1.3Q220.28 0.7 220 0.33 219.73-0.05 219.43-0.3L219.43-0.3Q218.98-0.65 218.68-1.8 218.38-2.95 218.38-4.7Z" opacity="1" transform="matrix(1,0,0,1,0,0)" fill="#ffffff" class="wordmark-text-0" data-fill-palette-color="primary" id="text-0"></path></svg></g></svg></g></svg></g></svg></g><g transform="matrix(1,0,0,1,414.2220011887634,13.522499130799915)"><svg viewBox="0 0 60.47926795716985 60.47926795716985" height="60.47926795716985" width="60.47926795716985"><g data-palette-color="#00cccc"><rect width="16.530999908293094" height="60.47926795716985" fill="#00cccc" stroke="transparent" data-fill-palette-color="accent" x="0" fill-opacity="1"></rect><rect width="16.530999908293094" height="60.47926795716985" fill="#00cccc" stroke="transparent" data-fill-palette-color="accent" x="20.159755985723287" fill-opacity="0.75"></rect><rect width="16.530999908293094" height="60.47926795716985" fill="#00cccc" stroke="transparent" data-fill-palette-color="accent" x="40.31951197144657" fill-opacity="0.5"></rect></g></svg></g></svg></g><defs></defs></svg><rect width="395.52" height="72.92501626787435" fill="none" stroke="none" visibility="hidden"></rect></g></svg></g></svg>